<svg xmlns="http://www.w3.org/2000/svg" width="24" height="24" viewBox="0 0 24 24" fill="none">
  <path fill-rule="evenodd" clip-rule="evenodd" d="M22.75 6.5C22.75 5.638 22.408 4.811 21.798 4.202C21.189 3.592 20.362 3.25 19.5 3.25H4.5C3.638 3.25 2.811 3.592 2.202 4.202C1.592 4.811 1.25 5.638 1.25 6.5V18.5C1.25 19.362 1.592 20.189 2.202 20.798C2.811 21.408 3.638 21.75 4.5 21.75H19.5C20.362 21.75 21.189 21.408 21.798 20.798C22.408 20.189 22.75 19.362 22.75 18.5V6.5ZM21.25 6.5V18.5C21.25 18.964 21.066 19.409 20.737 19.737C20.409 20.066 19.964 20.25 19.5 20.25H4.5C4.036 20.25 3.591 20.066 3.263 19.737C2.934 19.409 2.75 18.964 2.75 18.5V6.5C2.75 6.036 2.934 5.591 3.263 5.263C3.591 4.934 4.036 4.75 4.5 4.75H19.5C19.964 4.75 20.409 4.934 20.737 5.263C21.066 5.591 21.25 6.036 21.25 6.5Z" fill="black"/>
  <path fill-rule="evenodd" clip-rule="evenodd" d="M16.25 2V5.5C16.25 5.914 16.586 6.25 17 6.25C17.414 6.25 17.75 5.914 17.75 5.5V2C17.75 1.586 17.414 1.25 17 1.25C16.586 1.25 16.25 1.586 16.25 2Z" fill="black"/>
  <path fill-rule="evenodd" clip-rule="evenodd" d="M6.25 2V5.5C6.25 5.914 6.586 6.25 7 6.25C7.414 6.25 7.75 5.914 7.75 5.5V2C7.75 1.586 7.414 1.25 7 1.25C6.586 1.25 6.25 1.586 6.25 2Z" fill="black"/>
  <path fill-rule="evenodd" clip-rule="evenodd" d="M2 10.75H22C22.414 10.75 22.75 10.414 22.75 10C22.75 9.586 22.414 9.25 22 9.25H2C1.586 9.25 1.25 9.586 1.25 10C1.25 10.414 1.586 10.75 2 10.75Z" fill="black"/>
</svg>