<svg xmlns="http://www.w3.org/2000/svg" width="60" height="60" viewBox="0 0 60 60" fill="none">
  <g clip-path="url(#clip0_98_1305)">
    <path d="M54.6262 52.4898C58.0612 48.7033 59.9999 43.8055 59.9999 38.789C59.9999 30.2303 54.3113 22.5248 45.724 19.2751C44.6671 8.4833 34.8661 0 22.9687 0C10.088 0 3.75097e-05 9.79732 3.75097e-05 21.2109C3.75097e-05 26.2401 1.89378 30.9997 5.37038 34.7977L0.562419 39.2582C0.0323812 39.7499 -0.142579 40.516 0.121561 41.189C0.385584 41.862 1.03492 42.3046 1.75785 42.3046H14.4967C16.2885 52.1854 25.5871 59.9999 37.0312 59.9999H58.2421C58.9652 59.9999 59.6144 59.5573 59.8784 58.8843C60.1425 58.2113 59.9677 57.4452 59.4375 56.9535L54.6262 52.4898ZM9.09189 33.555C5.49612 30.2424 3.51566 25.8584 3.51566 21.2109C3.51566 11.4536 12.2422 3.51562 22.9687 3.51562C33.6306 3.51562 42.3046 11.4536 42.3046 21.2109C42.3046 30.9035 33.6306 38.789 22.9687 38.789C22.3503 38.789 6.25163 38.789 6.23733 38.789L9.09635 36.1366C9.84728 35.44 9.84599 34.2497 9.09189 33.555ZM37.0312 56.4843C27.8381 56.4843 19.8952 50.3957 18.0838 42.3046H22.9687C35.1669 42.3046 44.7346 33.6162 45.7305 23.0838C52.2484 26.0538 56.4843 32.1197 56.4843 38.789C56.4843 43.4437 54.4518 47.9856 50.9081 51.2503C50.5476 51.5824 50.3422 52.0499 50.3412 52.5401C50.3404 53.0303 50.5442 53.4984 50.9036 53.8318L53.7627 56.4843H37.0312Z" fill="#29262C"/>
    <path d="M12.4219 14.1797H33.5156C34.4864 14.1797 35.2734 13.3927 35.2734 12.4219C35.2734 11.4511 34.4864 10.6641 33.5156 10.6641H12.4219C11.4511 10.6641 10.6641 11.4511 10.6641 12.4219C10.6641 13.3927 11.4511 14.1797 12.4219 14.1797Z" fill="#29262C"/>
    <path d="M12.4219 21.2109H33.5156C34.4864 21.2109 35.2734 20.4239 35.2734 19.4531C35.2734 18.4823 34.4864 17.6953 33.5156 17.6953H12.4219C11.4511 17.6953 10.6641 18.4823 10.6641 19.4531C10.6641 20.4239 11.4511 21.2109 12.4219 21.2109Z" fill="#29262C"/>
    <path d="M12.4219 28.2422H33.5156C34.4864 28.2422 35.2734 27.4552 35.2734 26.4844C35.2734 25.5136 34.4864 24.7266 33.5156 24.7266H12.4219C11.4511 24.7266 10.6641 25.5136 10.6641 26.4844C10.6641 27.4552 11.4511 28.2422 12.4219 28.2422Z" fill="#29262C"/>
  </g>
  <defs>
    <clipPath id="clip0_98_1305">
      <rect width="60" height="60" fill="white"/>
    </clipPath>
  </defs>
</svg>