<svg width="140" height="140" viewBox="0 0 140 140" fill="none" xmlns="http://www.w3.org/2000/svg">
<g clip-path="url(#clip0_331_7133)">
<path d="M4.19922 115.753C4.21255 123.825 10.7617 130.36 18.8336 130.355H120.815C128.887 130.36 135.437 123.825 135.449 115.753M4.19922 115.753H4.69922V115.753M4.19922 115.753V38.0611M4.19922 115.753L4.69922 115.752C4.69922 115.752 4.69922 115.752 4.69922 115.753M4.69922 115.753C4.71232 123.548 11.0375 129.859 18.8333 129.855H18.8336H120.815H120.815C128.611 129.859 134.937 123.548 134.949 115.752M4.69922 115.753V38.0611M134.949 115.752V115.753H135.449M134.949 115.752L135.449 115.753M134.949 115.752V38.0615M135.449 115.753V38.0611M135.449 38.0611L134.949 38.0615M135.449 38.0611C135.444 29.9749 128.902 23.4134 120.815 23.3857M135.449 38.0611H134.949V38.0615M134.949 38.0615C134.944 30.2508 128.625 23.9129 120.814 23.8857M120.815 23.3857V23.8857H120.814M120.815 23.3857H117.902H117.402V22.8857V18.0342C117.402 13.0959 113.483 8.94824 108.543 8.94824H100.028C95.0899 8.94824 91.1524 13.0959 91.1524 18.0342V22.8857V23.3857H90.6524H48.9961H48.4961V22.8857V18.0342C48.4961 13.0959 44.5586 8.94824 39.6203 8.94824H31.1055C26.1651 8.94824 22.2461 13.0959 22.2461 18.0342V22.8857V23.3857H21.7461H18.8336M120.815 23.3857L120.813 23.8857C120.813 23.8857 120.814 23.8857 120.814 23.8857M120.814 23.8857H117.402H116.902V23.3857V18.0342C116.902 13.3554 113.191 9.44824 108.543 9.44824H100.028C95.3811 9.44824 91.6524 13.3568 91.6524 18.0342V23.3857V23.8857H91.1524H48.4961H47.9961V23.3857V18.0342C47.9961 13.3568 44.2674 9.44824 39.6203 9.44824H31.1055C26.4576 9.44824 22.7461 13.3554 22.7461 18.0342V23.3857V23.8857H22.2461H18.8345M18.8345 23.8857C18.8348 23.8857 18.835 23.8857 18.8353 23.8857L18.8336 23.3857M18.8345 23.8857C11.0231 23.9129 4.70434 30.2506 4.69922 38.0611M18.8345 23.8857H18.8336V23.3857M18.8336 23.3857C10.7463 23.4134 4.20435 29.9749 4.19922 38.0611M4.19922 38.0611H4.69922M4.19922 38.0611L4.69922 38.0615C4.69922 38.0613 4.69922 38.0612 4.69922 38.0611M10.2617 115.756L10.2617 115.755L10.2617 58.8232V58.3232H10.7617H128.887H129.387V58.8232V115.753V115.754C129.377 120.478 125.541 124.301 120.816 124.292M10.2617 115.756L120.817 123.792M10.2617 115.756C10.2715 120.48 14.1104 124.303 18.8347 124.292M10.2617 115.756L18.8336 123.792M120.816 124.292L120.817 123.792M120.816 124.292H120.817V123.792M120.816 124.292H120.815H18.8347M120.817 123.792H120.815H18.8336M18.8347 124.292L18.8336 123.792M18.8347 124.292H18.8336V123.792M110.84 38.3232H111.34V37.8232V18.0342C111.34 16.5003 110.199 15.0107 108.543 15.0107H100.028C98.3779 15.0107 97.2149 16.4952 97.2149 18.0342V37.8232V38.3232H97.7149H110.84ZM41.9336 38.3232H42.4336V37.8232V18.0342C42.4336 16.4952 41.2706 15.0107 39.6203 15.0107H31.1055C29.4485 15.0107 28.3086 16.5004 28.3086 18.0342V37.8232V38.3232H28.8086H41.9336ZM18.8336 29.4482L18.831 29.4483C14.0924 29.4733 10.2628 33.3214 10.2617 38.061V38.0611V52.2607V52.7607H10.7617H128.887H129.387V52.2607V38.0611C129.386 33.3214 125.556 29.4733 120.817 29.4482H120.815H117.402H116.902V29.9482V41.0584V41.0584V41.0585V41.0586V41.0586V41.0587V41.0588V41.0588V41.0589V41.059V41.059V41.0591V41.0592V41.0592V41.0593V41.0593V41.0594V41.0595V41.0596V41.0596V41.0597V41.0597V41.0598V41.0599V41.0599V41.06V41.0601V41.0602V41.0602V41.0603V41.0603V41.0604V41.0605V41.0606V41.0606V41.0607V41.0607V41.0608V41.0609V41.061V41.061V41.0611V41.0612V41.0612V41.0613V41.0614V41.0614V41.0615V41.0616V41.0616V41.0617V41.0618V41.0618V41.0619V41.062V41.062V41.0621V41.0622V41.0622V41.0623V41.0624V41.0624V41.0625V41.0626V41.0626V41.0627V41.0628V41.0628V41.0629V41.063V41.063V41.0631V41.0632V41.0632V41.0633V41.0634V41.0634V41.0635V41.0636V41.0636V41.0637V41.0638V41.0639V41.0639V41.064V41.0641V41.0641V41.0642V41.0643V41.0643V41.0644V41.0645V41.0645V41.0646V41.0647V41.0647V41.0648V41.0649V41.0649V41.065V41.0651V41.0651V41.0652V41.0653V41.0653V41.0654V41.0655V41.0656V41.0656V41.0657V41.0658V41.0658V41.0659V41.066V41.066V41.0661V41.0662V41.0662V41.0663V41.0664V41.0664V41.0665V41.0666V41.0666V41.0667V41.0668V41.0669V41.0669V41.067V41.0671V41.0671V41.0672V41.0673V41.0673V41.0674V41.0675V41.0675V41.0676V41.0677V41.0677V41.0678V41.0679V41.068V41.068V41.0681V41.0682V41.0682V41.0683V41.0684V41.0684V41.0685V41.0686V41.0686V41.0687V41.0688V41.0689V41.0689V41.069V41.0691V41.0691V41.0692V41.0693V41.0693V41.0694V41.0695V41.0695V41.0696V41.0697V41.0698V41.0698V41.0699V41.07V41.07V41.0701V41.0702V41.0702V41.0703V41.0704V41.0704V41.0705V41.0706V41.0707V41.0707V41.0708V41.0709V41.0709V41.071V41.0711V41.0711V41.0712V41.0713V41.0714V41.0714V41.0715V41.0716V41.0716V41.0717V41.0718V41.0718V41.0719V41.072V41.0721V41.0721V41.0722V41.0723V41.0723V41.0724V41.0725V41.0725V41.0726V41.0727V41.0728V41.0728V41.0729V41.073V41.073V41.0731V41.0732V41.0732V41.0733V41.0734V41.0735V41.0735V41.0736V41.0737V41.0737V41.0738V41.0739V41.0739V41.074V41.0741V41.0742V41.0742V41.0743V41.0744V41.0744V41.0745V41.0746V41.0746V41.0747V41.0748V41.0749V41.0749V41.075V41.0751V41.0751V41.0752V41.0753V41.0754V41.0754V41.0755V41.0756V41.0756V41.0757V41.0758V41.0758V41.0759V41.076V41.0761V41.0761V41.0762V41.0763V41.0763V41.0764V41.0765V41.0765V41.0766V41.0767V41.0768V41.0768V41.0769V41.077V41.077V41.0771V41.0772V41.0773V41.0773V41.0774V41.0775V41.0775V41.0776V41.0777V41.0778V41.0778V41.0779V41.078V41.078V41.0781V41.0782V41.0783V41.0783V41.0784V41.0785V41.0785V41.0786V41.0787V41.0787V41.0788V41.0789V41.079V41.079V41.0791V41.0792V41.0792V41.0793V41.0794V41.0795V41.0795V41.0796V41.0797V41.0797V41.0798V41.0799V41.08V41.08V41.0801V41.0802V41.0802V41.0803V41.0804V41.0805V41.0805V41.0806V41.0807V41.0807V41.0808V41.0809V41.081V41.081V41.0811V41.0812V41.0812V41.0813V41.0814V41.0815V41.0815V41.0816V41.0817V41.0817V41.0818V41.0819V41.082V41.082V41.0821V41.0822V41.0822V41.0823V41.0824V41.0825V41.0825V41.0826V41.0827V41.0827V41.0828V41.0829V41.083V41.083V41.0831V41.0832V41.0832V41.0833V41.0834V41.0835V41.0835V41.0836V41.0837V41.0837V41.0838V41.0839V41.084V41.084V41.0841V41.0842V41.0842V41.0843V41.0844V41.0845V41.0845V41.0846V41.0847V41.0847V41.0848V41.0849V41.085V41.085V41.0851V41.0852V41.0852V41.0853V41.0854V41.0855V41.0855V41.0856V41.0857V41.0858V41.0858V41.0859V41.086V41.086V41.0861V41.0862V41.0863V41.0863V41.0864V41.0865V41.0865V41.0866V41.0867V41.0868V41.0868V41.0869V41.087V41.087V41.0871V41.0872V41.0873V41.0873V41.0874V41.0875V41.0875V41.0876V41.0877V41.0878V41.0878V41.0879V41.088V41.0881V41.0881V41.0882V41.0883V41.0883V41.0884V41.0885V41.0886V41.0886V41.0887V41.0888V41.0888V41.0889V41.089V41.0891V41.0891V41.0892V41.0893V41.0893V41.0894V41.0895V41.0896V41.0896V41.0897V41.0898V41.0898V41.0899V41.09V41.0901V41.0901V41.0902V41.0903V41.0904V41.0904V41.0905V41.0906V41.0906V41.0907V41.0908V41.0909V41.0909V41.091V41.0911V41.0911V41.0912V41.0913V41.0914V41.0914V41.0915V41.0916V41.0917V41.0917V41.0918V41.0919V41.0919V41.092V41.0921V41.0922V41.0922V41.0923V41.0924V41.0924V41.0925V41.0926V41.0927V41.0927V41.0928V41.0929V41.0929V41.093V41.0931V41.0932V41.0932V41.0933V41.0934V41.0935V41.0935V41.0936V41.0937V41.0937V41.0938V41.0939V41.094V41.094V41.0941V41.0942L116.902 41.0942L116.902 41.1026C116.928 42.6124 115.725 43.8576 114.215 43.8857H94.335C92.8174 43.8482 91.6167 42.5877 91.6522 41.0701H91.6524V41.0584V29.9482V29.4482H91.1524H48.4961H47.9961V29.9482V41.0809H47.996L47.9962 41.0892C48.0213 42.6071 46.8102 43.8594 45.2928 43.8857H25.4003C23.8911 43.8397 22.7035 42.5812 22.7459 41.0724L22.7461 41.0724V41.0584V29.9482V29.4482H22.2461L18.8336 29.4482Z" fill="black" stroke="#FFF3CF"/>
<path d="M24.7461 100.588C23.385 100.588 22.1727 100.354 21.1094 99.8864C20.0521 99.4124 19.2166 98.7623 18.6029 97.9359C17.9952 97.1034 17.6823 96.1433 17.6641 95.0557H21.638C21.6623 95.5114 21.8112 95.9124 22.0846 96.2588C22.3641 96.5991 22.7348 96.8634 23.1966 97.0518C23.6584 97.2401 24.178 97.3343 24.7552 97.3343C25.3568 97.3343 25.8885 97.228 26.3503 97.0153C26.8121 96.8026 27.1736 96.5079 27.4349 96.1312C27.6962 95.7544 27.8268 95.32 27.8268 94.8278C27.8268 94.3295 27.6871 93.889 27.4076 93.5062C27.1341 93.1173 26.7391 92.8135 26.2227 92.5947C25.7122 92.376 25.1046 92.2666 24.3997 92.2666H22.6589V89.3682H24.3997C24.9952 89.3682 25.5208 89.2649 25.9766 89.0583C26.4384 88.8517 26.7969 88.5661 27.0521 88.2015C27.3073 87.8308 27.4349 87.3994 27.4349 86.9072C27.4349 86.4393 27.3225 86.0292 27.0977 85.6768C26.8789 85.3183 26.569 85.0387 26.168 84.8382C25.773 84.6377 25.3112 84.5374 24.7826 84.5374C24.2478 84.5374 23.7587 84.6347 23.3151 84.8291C22.8715 85.0175 22.5161 85.2879 22.2487 85.6403C21.9813 85.9927 21.8385 86.4059 21.8203 86.8799H18.0378C18.056 85.8044 18.3628 84.8564 18.9583 84.0361C19.5538 83.2158 20.3559 82.5748 21.3646 82.113C22.3793 81.6451 23.5247 81.4111 24.8008 81.4111C26.089 81.4111 27.2161 81.6451 28.1823 82.113C29.1484 82.5808 29.8989 83.2128 30.4336 84.0088C30.9744 84.7987 31.2418 85.6859 31.2357 86.6702C31.2418 87.7154 30.9167 88.5873 30.2604 89.2861C29.6102 89.9849 28.7626 90.4285 27.7174 90.6169V90.7627C29.0907 90.9389 30.1359 91.4159 30.8529 92.1937C31.576 92.9654 31.9345 93.9315 31.9284 95.0921C31.9345 96.1555 31.6276 97.1004 31.0078 97.9268C30.3941 98.7531 29.5464 99.4033 28.4648 99.8773C27.3832 100.351 26.1437 100.588 24.7461 100.588Z" fill="black"/>
<path d="M40.7422 100.333V86.333H44.4427V88.8031H44.6068C44.8984 87.9827 45.3845 87.3356 46.0651 86.8617C46.7457 86.3877 47.5599 86.1507 48.5078 86.1507C49.4679 86.1507 50.2852 86.3907 50.9596 86.8708C51.6341 87.3447 52.0838 87.9888 52.3086 88.8031H52.4544C52.74 88.001 53.2565 87.3599 54.0039 86.8799C54.7574 86.3938 55.6476 86.1507 56.6745 86.1507C57.9809 86.1507 59.0412 86.5669 59.8555 87.3994C60.6758 88.2258 61.0859 89.3985 61.0859 90.9176V100.333H57.2122V91.6833C57.2122 90.9055 57.0056 90.3222 56.5924 89.9333C56.1793 89.5444 55.6628 89.3499 55.043 89.3499C54.3381 89.3499 53.7882 89.5748 53.3932 90.0244C52.9983 90.468 52.8008 91.0544 52.8008 91.7835V100.333H49.0365V91.6012C49.0365 90.9146 48.839 90.3677 48.444 89.9606C48.0551 89.5535 47.5417 89.3499 46.9036 89.3499C46.4722 89.3499 46.0833 89.4593 45.737 89.6781C45.3967 89.8907 45.1263 90.1915 44.9258 90.5804C44.7253 90.9632 44.625 91.4129 44.625 91.9294V100.333H40.7422Z" fill="black"/>
<path d="M70.4785 100.606C69.0627 100.606 67.8383 100.306 66.8053 99.7041C65.7784 99.0965 64.9855 98.2518 64.4264 97.1702C63.8674 96.0826 63.5879 94.8217 63.5879 93.3877C63.5879 91.9415 63.8674 90.6776 64.4264 89.596C64.9855 88.5084 65.7784 87.6637 66.8053 87.0622C67.8383 86.4545 69.0627 86.1507 70.4785 86.1507C71.8943 86.1507 73.1157 86.4545 74.1426 87.0622C75.1756 87.6637 75.9716 88.5084 76.5306 89.596C77.0896 90.6776 77.3691 91.9415 77.3691 93.3877C77.3691 94.8217 77.0896 96.0826 76.5306 97.1702C75.9716 98.2518 75.1756 99.0965 74.1426 99.7041C73.1157 100.306 71.8943 100.606 70.4785 100.606ZM70.4967 97.5986C71.1408 97.5986 71.6786 97.4163 72.11 97.0518C72.5414 96.6811 72.8665 96.1768 73.0853 95.5387C73.3101 94.9007 73.4225 94.1746 73.4225 93.3604C73.4225 92.5461 73.3101 91.82 73.0853 91.182C72.8665 90.5439 72.5414 90.0396 72.11 89.6689C71.6786 89.2983 71.1408 89.113 70.4967 89.113C69.8466 89.113 69.2997 89.2983 68.8561 89.6689C68.4186 90.0396 68.0875 90.5439 67.8626 91.182C67.6439 91.82 67.5345 92.5461 67.5345 93.3604C67.5345 94.1746 67.6439 94.9007 67.8626 95.5387C68.0875 96.1768 68.4186 96.6811 68.8561 97.0518C69.2997 97.4163 69.8466 97.5986 70.4967 97.5986Z" fill="black"/>
<path d="M83.7767 92.2393V100.333H79.8939V86.333H83.5944V88.8031H83.7585C84.0684 87.9888 84.5879 87.3447 85.3171 86.8708C86.0462 86.3907 86.9303 86.1507 87.9694 86.1507C88.9416 86.1507 89.7893 86.3634 90.5124 86.7887C91.2355 87.2141 91.7975 87.8217 92.1986 88.6117C92.5996 89.3955 92.8001 90.3313 92.8001 91.4189V100.333H88.9173V92.1117C88.9234 91.2549 88.7046 90.5865 88.2611 90.1064C87.8175 89.6203 87.2068 89.3773 86.429 89.3773C85.9065 89.3773 85.4447 89.4897 85.0436 89.7145C84.6487 89.9393 84.3388 90.2675 84.1139 90.6989C83.8952 91.1242 83.7828 91.6377 83.7767 92.2393Z" fill="black"/>
<path d="M103.307 86.333V89.2497H94.876V86.333H103.307ZM96.79 82.9788H100.673V96.0309C100.673 96.3894 100.728 96.6689 100.837 96.8695C100.946 97.0639 101.098 97.2006 101.293 97.2796C101.493 97.3586 101.724 97.3981 101.985 97.3981C102.168 97.3981 102.35 97.3829 102.532 97.3525C102.715 97.3161 102.854 97.2887 102.951 97.2705L103.562 100.16C103.368 100.221 103.094 100.29 102.742 100.369C102.389 100.455 101.961 100.506 101.457 100.524C100.521 100.561 99.7006 100.436 98.9958 100.151C98.297 99.8651 97.7531 99.4216 97.3643 98.82C96.9754 98.2184 96.784 97.4589 96.79 96.5413V82.9788Z" fill="black"/>
<path d="M110.02 92.2393V100.333H106.137V81.6663H109.91V88.8031H110.075C110.391 87.9767 110.901 87.3295 111.606 86.8617C112.311 86.3877 113.195 86.1507 114.258 86.1507C115.23 86.1507 116.078 86.3634 116.801 86.7887C117.53 87.208 118.095 87.8126 118.496 88.6025C118.904 89.3864 119.104 90.3252 119.098 91.4189V100.333H115.215V92.1117C115.221 91.2488 115.002 90.5774 114.559 90.0973C114.121 89.6173 113.508 89.3773 112.718 89.3773C112.189 89.3773 111.721 89.4897 111.314 89.7145C110.913 89.9393 110.597 90.2675 110.366 90.6989C110.141 91.1242 110.026 91.6377 110.02 92.2393Z" fill="black"/>
</g>
<defs>
<clipPath id="clip0_331_7133">
<rect width="140" height="140" fill="white"/>
</clipPath>
</defs>
</svg>
