<svg xmlns="http://www.w3.org/2000/svg" width="140" height="140" viewBox="0 0 140 140" fill="none">
  <g clip-path="url(#clip0_331_4886)">
    <path d="M107.188 0H59.0626C56.7427 0.00243206 54.5185 0.925085 52.8781 2.5655C51.2377 4.20592 50.315 6.4301 50.3126 8.75V51.5942L31.1101 70.7969C28.8685 73.0261 27.0914 75.6777 25.8817 78.5984C24.672 81.5191 24.0537 84.6507 24.0626 87.8119V113.22C24.0455 119.426 26.3919 125.406 30.6251 129.945V137.812C30.6251 138.393 30.8556 138.949 31.2658 139.359C31.676 139.77 32.2324 140 32.8126 140C33.3928 140 33.9492 139.77 34.3594 139.359C34.7696 138.949 35.0001 138.393 35.0001 137.812V129.062C35.0001 128.775 34.9435 128.491 34.8335 128.225C34.7236 127.96 34.5624 127.719 34.3592 127.516C32.476 125.643 30.983 123.415 29.9665 120.961C28.9501 118.507 28.4304 115.876 28.4376 113.22V87.8119C28.4305 85.2254 28.9364 82.6632 29.9261 80.2735C30.9157 77.8839 32.3695 75.7142 34.2032 73.89L50.3126 57.7808V68.5563C50.3126 69.1364 50.5431 69.6928 50.9533 70.1031C51.3635 70.5133 51.9199 70.7438 52.5001 70.7438C53.0803 70.7438 53.6367 70.5133 54.0469 70.1031C54.4571 69.6928 54.6876 69.1364 54.6876 68.5563V8.75C54.6889 7.59009 55.1503 6.47806 55.9705 5.65788C56.7906 4.8377 57.9027 4.37633 59.0626 4.375H89.6876V105H69.9126C69.3324 105 68.776 105.23 68.3658 105.641C67.9556 106.051 67.7251 106.607 67.7251 107.188C67.7251 107.768 67.9556 108.324 68.3658 108.734C68.776 109.145 69.3324 109.375 69.9126 109.375H78.7501V114.613C78.755 119.325 77.3601 123.931 74.7426 127.849C74.5031 128.208 74.3752 128.631 74.3751 129.062V137.812C74.3751 138.393 74.6056 138.949 75.0158 139.359C75.426 139.77 75.9824 140 76.5626 140C77.1427 140 77.6992 139.77 78.1094 139.359C78.5196 138.949 78.7501 138.393 78.7501 137.812V129.71C81.6132 125.195 83.1308 119.959 83.1251 114.613V109.375H107.188C109.507 109.373 111.732 108.45 113.372 106.809C115.012 105.169 115.935 102.945 115.938 100.625V8.75C115.935 6.4301 115.012 4.20592 113.372 2.5655C111.732 0.925085 109.507 0.00243206 107.188 0ZM94.0626 105V4.375H98.4376V105H94.0626ZM111.563 100.625C111.561 101.785 111.1 102.897 110.28 103.717C109.46 104.537 108.347 104.999 107.188 105H102.813V4.375H107.188C108.347 4.37633 109.46 4.8377 110.28 5.65788C111.1 6.47806 111.561 7.59009 111.563 8.75V100.625Z" fill="black"/>
    <path d="M74.375 48.125V13.125C74.375 12.5448 74.1445 11.9884 73.7343 11.5782C73.3241 11.168 72.7677 10.9375 72.1875 10.9375C71.6073 10.9375 71.0509 11.168 70.6407 11.5782C70.2305 11.9884 70 12.5448 70 13.125V48.125C70 48.7052 70.2305 49.2616 70.6407 49.6718C71.0509 50.082 71.6073 50.3125 72.1875 50.3125C72.7677 50.3125 73.3241 50.082 73.7343 49.6718C74.1445 49.2616 74.375 48.7052 74.375 48.125Z" fill="black"/>
    <path d="M65.625 32.8125V13.125C65.625 12.5448 65.3945 11.9884 64.9843 11.5782C64.5741 11.168 64.0177 10.9375 63.4375 10.9375C62.8573 10.9375 62.3009 11.168 61.8907 11.5782C61.4805 11.9884 61.25 12.5448 61.25 13.125V32.8125C61.25 33.3927 61.4805 33.9491 61.8907 34.3593C62.3009 34.7695 62.8573 35 63.4375 35C64.0177 35 64.5741 34.7695 64.9843 34.3593C65.3945 33.9491 65.625 33.3927 65.625 32.8125Z" fill="black"/>
    <path d="M75.3752 80.8428C76.2246 79.9933 76.8984 78.9849 77.3581 77.875C77.8179 76.7651 78.0545 75.5756 78.0545 74.3743C78.0545 73.173 77.8179 71.9835 77.3581 70.8736C76.8984 69.7638 76.2246 68.7553 75.3752 67.9059C74.5257 67.0564 73.5173 66.3826 72.4074 65.9229C71.2976 65.4632 70.108 65.2266 68.9067 65.2266C67.7054 65.2266 66.5159 65.4632 65.406 65.9229C64.2962 66.3826 63.2877 67.0564 62.4383 67.9059L42.2039 88.1403C41.8054 88.5528 41.5849 89.1054 41.5899 89.6789C41.5949 90.2525 41.825 90.8012 42.2305 91.2067C42.6361 91.6123 43.1848 91.8424 43.7583 91.8474C44.3319 91.8523 44.8845 91.6318 45.297 91.2334L65.5314 70.999C66.4266 70.1038 67.6407 69.6009 68.9067 69.6009C70.1727 69.6009 71.3868 70.1038 72.282 70.999C73.1772 71.8942 73.6801 73.1083 73.6801 74.3743C73.6801 75.6403 73.1772 76.8544 72.282 77.7496L54.2352 95.7965C54.0319 95.9995 53.8707 96.2406 53.7607 96.506C53.6508 96.7714 53.5941 97.0558 53.5941 97.3431C53.5941 97.6303 53.6508 97.9148 53.7607 98.1801C53.8707 98.4455 54.0319 98.6866 54.2352 98.8896C56.7798 101.43 58.4593 104.707 59.0351 108.257C59.6109 111.806 59.0537 115.446 57.4427 118.66L57.1062 119.333C56.8467 119.852 56.804 120.453 56.9875 121.004C57.1709 121.554 57.5655 122.009 58.0845 122.269C58.6035 122.528 59.2042 122.571 59.7547 122.387C60.3051 122.204 60.7602 121.809 61.0197 121.29L61.3561 120.617C63.2116 116.916 63.9571 112.757 63.503 108.642C63.0489 104.526 61.4145 100.63 58.7967 97.422L75.3752 80.8428Z" fill="black"/>
  </g>
  <defs>
    <clipPath id="clip0_331_4886">
      <rect width="140" height="140" fill="white"/>
    </clipPath>
  </defs>
</svg>