<svg xmlns="http://www.w3.org/2000/svg" width="140" height="140" viewBox="0 0 140 140" fill="none">
  <path d="M134.374 67.517V61.2039C134.374 56.5435 130.591 52.7522 125.941 52.7522H107.149V39.8013L107.846 40.2053C108.707 40.7059 109.664 40.9616 110.634 40.9616C111.116 40.9616 111.601 40.8985 112.079 40.7709C113.52 40.3862 114.724 39.4627 115.47 38.1702L116.948 35.6112C118.488 32.9449 117.576 29.518 114.915 27.9715L76.3851 5.61823C74.2043 4.34991 71.4944 4.35014 69.3155 5.61755L30.7807 27.9719C28.119 29.5187 27.2086 32.9463 28.7505 35.6112L30.2284 38.17C30.9744 39.4624 32.1784 40.3862 33.6182 40.7706C35.0581 41.1555 36.5613 40.955 37.8499 40.2058L38.5493 39.7999V80.2284C38.5493 81.1722 39.3126 81.9374 40.2546 81.9374H82.2982C83.8394 83.9748 86.2794 85.2939 89.0213 85.2939H115.918C116.86 85.2939 117.623 84.5287 117.623 83.5849C117.623 82.6411 116.86 81.8759 115.918 81.8759H89.0213C86.2517 81.8759 83.9986 79.6177 83.9986 76.8423V61.2036C83.9986 58.428 86.2517 56.17 89.0213 56.17H125.941C128.71 56.17 130.963 58.4282 130.963 61.2036V76.8423C130.963 79.6177 128.71 81.8759 125.941 81.8759H122.739C121.797 81.8759 121.034 82.6411 121.034 83.5849C121.034 84.5287 121.797 85.2939 122.739 85.2939H125.941C130.591 85.2939 134.374 81.5024 134.374 76.8423V71.1285C135.683 71.7656 136.589 73.107 136.589 74.6604V83.4539C136.589 85.62 134.831 87.3823 132.669 87.3823H112.736C108.898 87.3823 105.776 90.5112 105.776 94.3572V97.193H104.747C101.591 97.193 99.0237 99.7661 99.0237 102.928V115.598C99.0237 118.761 101.591 121.334 104.747 121.334H110.216C113.372 121.334 115.939 118.761 115.939 115.598V102.928C115.939 99.7659 113.372 97.193 110.216 97.193H109.187V94.3572C109.187 92.3959 110.779 90.8004 112.736 90.8004H132.669C136.711 90.8004 140 87.5047 140 83.4539V74.6604C140 71.1982 137.597 68.2892 134.374 67.517ZM41.9602 78.5196V37.8216L54.7872 30.3803C55.6021 29.9075 55.8807 28.8618 55.4086 28.0451C54.9368 27.2279 53.8938 26.949 53.0782 27.4223L36.1404 37.2485C35.6398 37.5395 35.0563 37.6176 34.4967 37.4681C33.9378 37.3189 33.4704 36.9602 33.1805 36.458L31.7018 33.8979C31.1025 32.8622 31.4569 31.5303 32.4908 30.9294L71.0258 8.5746C72.1511 7.92062 73.5488 7.92062 74.675 8.57551L113.205 30.9288C114.24 31.5303 114.595 32.8627 113.997 33.899L112.519 36.4582C112.229 36.96 111.761 37.3187 111.202 37.4681C110.641 37.6178 110.058 37.5395 109.556 37.248L73.7029 16.4482C73.1745 16.1414 72.5226 16.1414 71.994 16.4482L58.9721 24.0043C58.1569 24.4773 57.8786 25.5228 58.3509 26.3397C58.8229 27.1566 59.8663 27.4351 60.681 26.9625L72.8485 19.9022L103.739 37.8229V52.7524H89.9231V41.4775C89.9231 37.8715 86.9956 34.9377 83.3974 34.9377H62.3013C58.7031 34.9377 55.7756 37.8715 55.7756 41.4775V61.7555C55.7756 65.3616 58.7031 68.2954 62.3013 68.2954H80.5884V76.8427C80.5884 77.417 80.6464 77.9775 80.7557 78.5199L41.9602 78.5196ZM65.3898 58.6595V53.3248H71.144V58.6595H65.3898ZM80.3089 44.5724V49.907H74.5547V44.5724H80.3089ZM71.144 49.907H65.3898V44.5724H71.144V49.907ZM74.5547 53.3251H80.3089V58.6597H74.5547V53.3251ZM83.7196 54.6381V42.8634C83.7196 41.9196 82.9563 41.1544 82.0143 41.1544H63.6847C62.7427 41.1544 61.9794 41.9196 61.9794 42.8634V60.3685C61.9794 61.3123 62.7427 62.0775 63.6847 62.0775H80.5886V64.8771H62.3016C60.5837 64.8771 59.1865 63.4766 59.1865 61.7553V41.4773C59.1865 39.7559 60.584 38.3555 62.3016 38.3555H83.3976C85.1154 38.3555 86.5127 39.7559 86.5127 41.4773V53.1341C85.4831 53.4563 84.5386 53.9725 83.7196 54.6381ZM112.529 102.929V115.598C112.529 116.876 111.491 117.916 110.216 117.916H104.747C103.472 117.916 102.435 116.876 102.435 115.598V102.929C102.435 101.651 103.472 100.611 104.747 100.611H110.216C111.491 100.611 112.529 101.651 112.529 102.929Z" fill="black"/>
</svg>