<svg xmlns="http://www.w3.org/2000/svg" width="140" height="140" viewBox="0 0 140 140" fill="none">
  <path d="M4.34816 109.666H133.318C133.852 109.666 134.365 109.449 134.743 109.062C135.121 108.676 135.333 108.151 135.333 107.605V32.3947C135.333 31.8479 135.121 31.3235 134.743 30.9369C134.365 30.5502 133.852 30.333 133.318 30.333H4.34816C3.81371 30.333 3.30115 30.5502 2.92323 30.9369C2.54532 31.3235 2.33301 31.8479 2.33301 32.3947V107.605C2.33301 108.151 2.54532 108.676 2.92323 109.062C3.30115 109.449 3.81371 109.666 4.34816 109.666ZM6.36331 34.4564H131.303V105.543H6.36331V34.4564Z" fill="black"/>
  <path d="M123.943 37.333H13.7248C13.179 37.333 12.6556 37.5515 12.2697 37.9403C11.8838 38.3292 11.667 38.8566 11.667 39.4065V98.2596C11.667 98.8095 11.8838 99.3369 12.2697 99.7257C12.6556 100.115 13.179 100.333 13.7248 100.333H123.943C124.488 100.333 125.012 100.115 125.398 99.7257C125.784 99.3369 126 98.8095 126 98.2596V39.4065C126 38.8566 125.784 38.3292 125.398 37.9403C125.012 37.5515 124.488 37.333 123.943 37.333ZM109.527 96.1861H27.1223C27.2515 94.6324 27.0509 93.0688 26.5338 91.5993C26.0167 90.1298 25.1949 88.7881 24.1232 87.6635C23.0514 86.5388 21.7543 85.6571 20.3181 85.0768C18.8819 84.4966 17.3395 84.2312 15.7935 84.2983V52.978C16.2232 53.0463 16.6566 53.0888 17.0913 53.1051C18.5747 53.0966 20.0409 52.7852 21.4014 52.1897C22.762 51.5942 23.9886 50.727 25.0072 49.6405C26.0258 48.5539 26.8152 47.2706 27.3278 45.868C27.8403 44.4654 28.0654 42.9726 27.9893 41.4799H109.53C109.385 43.0889 109.591 44.7103 110.135 46.2301C110.679 47.7499 111.546 49.1313 112.677 50.2769C113.686 51.311 114.889 52.1322 116.217 52.6928C117.544 53.2534 118.969 53.542 120.409 53.5419C120.903 53.525 121.397 53.4751 121.885 53.3926V83.8034C120.214 83.5642 118.511 83.7187 116.91 84.2547C115.308 84.7908 113.852 85.6938 112.655 86.8927C111.459 88.0917 110.555 89.554 110.014 91.1646C109.473 92.7752 109.31 94.4903 109.538 96.175L109.527 96.1861ZM121.874 49.2153C120.794 49.4571 119.673 49.4293 118.606 49.1344C117.54 48.8394 116.561 48.2862 115.756 47.523C114.95 46.7598 114.342 45.8097 113.984 44.7555C113.627 43.7012 113.53 42.5748 113.703 41.4744H121.874V49.2153ZM23.8299 41.4799C23.9206 42.4771 23.793 43.4823 23.4559 44.4243C23.1188 45.3664 22.5805 46.2223 21.8791 46.9317C21.0937 47.7221 20.1255 48.3032 19.0617 48.6227C17.9979 48.9422 16.872 48.99 15.7853 48.7619V41.4799H23.8299ZM15.7853 88.4784C16.7884 88.3994 17.7964 88.5489 18.7343 88.9158C19.6723 89.2827 20.5164 89.8575 21.2039 90.5978C21.8914 91.3381 22.4047 92.2248 22.7059 93.1921C23.0071 94.1595 23.0883 95.1828 22.9437 96.1861H15.7826L15.7853 88.4784ZM113.695 96.1861C113.449 95.0541 113.492 93.878 113.818 92.767C114.144 91.6559 114.744 90.646 115.561 89.8309C116.379 89.0159 117.387 88.4222 118.493 88.105C119.599 87.7879 120.767 87.7575 121.887 88.0167V96.1861H113.695Z" fill="black"/>
  <path d="M96.8405 55.7463C100.498 55.7463 103.586 57.9971 103.586 60.6579C103.586 61.198 103.783 61.716 104.134 62.0978C104.486 62.4797 104.962 62.6943 105.459 62.6943C105.956 62.6943 106.433 62.4797 106.784 62.0978C107.136 61.716 107.333 61.198 107.333 60.6579C107.333 56.2513 103.601 52.5941 98.7042 51.8366V48.7033C98.7042 48.1633 98.5068 47.6453 98.1554 47.2634C97.804 46.8815 97.3274 46.667 96.8305 46.667C96.3336 46.667 95.857 46.8815 95.5056 47.2634C95.1543 47.6453 94.9569 48.1633 94.9569 48.7033V51.8366C90.0628 52.5995 86.333 56.254 86.333 60.6579C86.333 65.6103 91.0446 69.6422 96.8255 69.6422C100.483 69.6422 103.571 71.8903 103.571 74.5511C103.571 77.212 100.478 79.4628 96.8255 79.4628C93.1731 79.4628 90.0803 77.2147 90.0803 74.5511C90.0803 74.0111 89.8829 73.4931 89.5315 73.1112C89.1802 72.7294 88.7036 72.5148 88.2067 72.5148C87.7097 72.5148 87.2332 72.7294 86.8818 73.1112C86.5304 73.4931 86.333 74.0111 86.333 74.5511C86.333 78.9551 90.0628 82.6123 94.9569 83.3725V86.6307C94.9569 87.1707 95.1543 87.6887 95.5056 88.0706C95.857 88.4524 96.3336 88.667 96.8305 88.667C97.3274 88.667 97.804 88.4524 98.1554 88.0706C98.5068 87.6887 98.7042 87.1707 98.7042 86.6307V83.3725C103.601 82.6123 107.333 78.9551 107.333 74.5484C107.333 69.5961 102.624 65.5669 96.8405 65.5669C93.1781 65.5669 90.0953 63.316 90.0953 60.6552C90.0953 57.9944 93.1856 55.7463 96.8405 55.7463Z" fill="black"/>
  <path d="M32.7995 79.6119C31.7522 79.6052 30.7413 79.4296 29.7669 79.0849C28.7991 78.7402 27.9307 78.18 27.1618 77.4045C26.3928 76.6289 25.783 75.6014 25.3322 74.3221C24.8881 73.0427 24.666 71.4717 24.666 69.609C24.6726 67.8988 24.8682 66.3709 25.2527 65.0252C25.6438 63.6729 26.2006 62.5262 26.9231 61.5849C27.6523 60.6436 28.524 59.9277 29.5382 59.4371C30.5524 58.94 31.6892 58.6914 32.9487 58.6914C34.3076 58.6914 35.5074 58.9566 36.5481 59.4869C37.5888 60.0105 38.4241 60.7231 39.0538 61.6246C39.6902 62.5262 40.0746 63.5371 40.2072 64.6573H35.9615C35.7958 63.948 35.4477 63.3912 34.9174 62.9869C34.3871 62.5825 33.7309 62.3803 32.9487 62.3803C31.6229 62.3803 30.6154 62.957 29.926 64.1104C29.2432 65.2639 28.8952 66.8316 28.8819 68.8136H29.0211C29.3261 68.2103 29.737 67.6966 30.2541 67.2724C30.7778 66.8415 31.371 66.5134 32.0339 66.288C32.7034 66.056 33.4094 65.94 34.1518 65.94C35.3583 65.94 36.4321 66.225 37.3734 66.7951C38.3147 67.3585 39.0571 68.1341 39.6007 69.1218C40.1442 70.1095 40.416 71.2397 40.416 72.5124C40.416 73.8912 40.0945 75.1175 39.4515 76.1914C38.8152 77.2653 37.9236 78.1071 36.7768 78.717C35.6367 79.3202 34.3109 79.6185 32.7995 79.6119ZM32.7797 76.2312C33.4425 76.2312 34.0358 76.0721 34.5595 75.7539C35.0832 75.4357 35.4941 75.0049 35.7924 74.4613C36.0907 73.9177 36.2399 73.3079 36.2399 72.6318C36.2399 71.9556 36.0907 71.3491 35.7924 70.8121C35.5008 70.2752 35.0964 69.8477 34.5794 69.5295C34.0623 69.2113 33.4724 69.0522 32.8095 69.0522C32.3123 69.0522 31.8516 69.145 31.4274 69.3306C31.0098 69.5162 30.6419 69.7747 30.3237 70.1062C30.0121 70.4376 29.7669 70.8221 29.5879 71.2596C29.4089 71.6905 29.3194 72.1512 29.3194 72.6417C29.3194 73.2979 29.4686 73.8978 29.7669 74.4414C30.0718 74.985 30.4828 75.4192 30.9998 75.744C31.5235 76.0688 32.1168 76.2312 32.7797 76.2312Z" fill="black"/>
  <path d="M51.4529 79.7809C49.7427 79.7743 48.2711 79.3533 47.0382 78.5181C45.8118 77.6829 44.8672 76.4731 44.2044 74.8889C43.5481 73.3046 43.2233 71.3988 43.2299 69.1715C43.2299 66.9509 43.5581 65.0584 44.2143 63.494C44.8772 61.9296 45.8218 60.7397 47.0481 59.9244C48.2811 59.1024 49.7493 58.6914 51.4529 58.6914C53.1565 58.6914 54.6215 59.1024 55.8478 59.9244C57.0808 60.7463 58.0287 61.9395 58.6916 63.5039C59.3545 65.0617 59.6826 66.9509 59.676 69.1715C59.676 71.4054 59.3445 73.3145 58.6816 74.8988C58.0254 76.4831 57.0841 77.6928 55.8578 78.5281C54.6315 79.3633 53.1632 79.7809 51.4529 79.7809ZM51.4529 76.2113C52.6196 76.2113 53.551 75.6246 54.247 74.4514C54.943 73.2781 55.2877 71.5181 55.2811 69.1715C55.2811 67.627 55.122 66.341 54.8038 65.3136C54.4922 64.2861 54.0481 63.5139 53.4714 62.9968C52.9013 62.4798 52.2285 62.2212 51.4529 62.2212C50.2929 62.2212 49.3649 62.8013 48.6689 63.9613C47.9728 65.1213 47.6215 66.8581 47.6149 69.1715C47.6149 70.7359 47.7707 72.0418 48.0822 73.0891C48.4004 74.1299 48.8478 74.9121 49.4245 75.4357C50.0012 75.9528 50.6774 76.2113 51.4529 76.2113Z" fill="black"/>
  <path d="M70.7303 79.7809C69.0201 79.7743 67.5485 79.3533 66.3155 78.5181C65.0892 77.6829 64.1446 76.4731 63.4817 74.8889C62.8255 73.3046 62.5006 71.3988 62.5073 69.1715C62.5073 66.9509 62.8354 65.0584 63.4916 63.494C64.1545 61.9296 65.0991 60.7397 66.3255 59.9244C67.5584 59.1024 69.0267 58.6914 70.7303 58.6914C72.4339 58.6914 73.8988 59.1024 75.1252 59.9244C76.3581 60.7463 77.306 61.9395 77.9689 63.5039C78.6318 65.0617 78.9599 66.9509 78.9533 69.1715C78.9533 71.4054 78.6219 73.3145 77.959 74.8988C77.3027 76.4831 76.3614 77.6928 75.1351 78.5281C73.9088 79.3633 72.4405 79.7809 70.7303 79.7809ZM70.7303 76.2113C71.897 76.2113 72.8283 75.6246 73.5243 74.4514C74.2203 73.2781 74.565 71.5181 74.5584 69.1715C74.5584 67.627 74.3993 66.341 74.0811 65.3136C73.7696 64.2861 73.3255 63.5139 72.7488 62.9968C72.1787 62.4798 71.5059 62.2212 70.7303 62.2212C69.5703 62.2212 68.6422 62.8013 67.9462 63.9613C67.2502 65.1213 66.8989 66.8581 66.8922 69.1715C66.8922 70.7359 67.048 72.0418 67.3596 73.0891C67.6777 74.1299 68.1252 74.9121 68.7019 75.4357C69.2786 75.9528 69.9547 76.2113 70.7303 76.2113Z" fill="black"/>
</svg>