<svg xmlns="http://www.w3.org/2000/svg" width="253" height="270" viewBox="0 0 253 270" fill="none">
  <path d="M26.4283 39.8569C45.2441 17.2334 66.4887 4.32197 90.162 1.12253C114.02 -2.29871 136.706 4.93743 158.22 22.831C180.622 41.4623 191.576 62.5796 191.082 86.1826C190.587 109.786 180.563 133.343 161.009 156.853L186.186 180.044L158.792 212.981L105.175 171.202L114.306 160.223C132.2 138.708 142.967 119.897 146.608 103.789C150.434 87.4593 144.251 72.5613 128.06 59.095C116.304 49.3182 104.241 45.1006 91.868 46.4422C79.68 47.5621 68.6053 54.1106 58.644 66.0878C48.6826 78.0649 44.0588 90.1661 44.7724 102.391C45.486 114.617 51.6096 125.526 63.1431 135.118L33.5358 170.717C20.2278 159.649 10.852 146.785 5.4081 132.127C-0.035773 117.468 -1.02936 102.196 2.42735 86.3095C6.06851 70.2016 14.0688 54.7174 26.4283 39.8569ZM245.6 258.163C239.882 265.038 232.756 268.868 224.225 269.652C215.693 270.436 207.99 267.969 201.114 262.25C194.238 256.532 190.408 249.407 189.624 240.875C188.84 232.343 191.308 224.64 197.026 217.764C202.56 211.11 209.593 207.391 218.125 206.607C226.656 205.823 234.36 208.291 241.236 214.009C248.112 219.728 251.941 226.853 252.725 235.384C253.509 243.916 251.134 251.509 245.6 258.163Z" fill="#73A7FC" fill-opacity="0.2"/>
</svg>