<svg width="173" height="52" viewBox="0 0 173 52" fill="none" xmlns="http://www.w3.org/2000/svg">
<path d="M171.898 45.7866C171.898 46.4386 171.771 47.0842 171.524 47.6865C171.277 48.2888 170.914 48.836 170.458 49.2968C170.001 49.7576 169.459 50.123 168.862 50.372C168.266 50.621 167.627 50.7489 166.981 50.7482H6.06518C4.76095 50.7496 3.50957 50.2276 2.58626 49.2972C1.66295 48.3668 1.1433 47.104 1.1416 45.7866V6.21997C1.1433 4.902 1.66274 3.63858 2.58587 2.70712C3.509 1.77565 4.76036 1.2523 6.06518 1.25195H166.98C167.626 1.25195 168.265 1.38046 168.862 1.63015C169.458 1.87983 170.001 2.24579 170.457 2.70713C170.914 3.16847 171.276 3.71615 171.523 4.31889C171.77 4.92163 171.897 5.56762 171.897 6.21997L171.898 45.7866Z" fill="white"/>
<path d="M166.981 51.9025H6.06502C4.45835 51.9022 2.91744 51.2581 1.7804 50.1115C0.643356 48.965 0.00305704 47.4096 0 45.7868L0 6.22138C0.00237682 4.59772 0.642254 3.0413 1.77926 1.89357C2.91627 0.745829 4.45756 0.100492 6.06502 0.0991211L166.98 0.0991211C168.587 0.101175 170.128 0.746733 171.265 1.89432C172.402 3.04191 173.042 4.59793 173.045 6.22138V45.7868C173.047 49.1601 170.322 51.9025 166.981 51.9025Z" fill="#A6A6A6"/>
<path d="M171.898 45.7866C171.898 46.4386 171.771 47.0842 171.524 47.6865C171.277 48.2888 170.914 48.836 170.458 49.2968C170.001 49.7576 169.459 50.123 168.862 50.372C168.266 50.621 167.627 50.7489 166.981 50.7482H6.06518C4.76095 50.7496 3.50957 50.2276 2.58626 49.2972C1.66295 48.3668 1.1433 47.104 1.1416 45.7866V6.21997C1.1433 4.902 1.66274 3.63858 2.58587 2.70712C3.509 1.77565 4.76036 1.2523 6.06518 1.25195H166.98C167.626 1.25195 168.265 1.38046 168.862 1.63015C169.458 1.87983 170.001 2.24579 170.457 2.70713C170.914 3.16847 171.276 3.71615 171.523 4.31889C171.77 4.92163 171.897 5.56762 171.897 6.21997L171.898 45.7866Z" fill="black"/>
<path d="M38.6401 25.7281C38.6029 21.5529 42.0246 19.5216 42.1811 19.4271C40.2432 16.5732 37.2396 16.1833 36.184 16.1522C33.6613 15.884 31.2143 17.6769 29.9292 17.6769C28.6185 17.6769 26.6396 16.1781 24.5067 16.2221C21.7622 16.2649 19.1946 17.8699 17.7864 20.3624C14.8802 25.4444 17.0476 32.9126 19.832 37.0205C21.2248 39.0336 22.8523 41.2786 24.9826 41.1995C27.0666 41.114 27.8451 39.8588 30.3601 39.8588C32.8521 39.8588 33.5831 41.1995 35.7557 41.149C37.9924 41.114 39.4006 39.1281 40.7447 37.0982C42.3542 34.7936 43.0006 32.5214 43.0263 32.4048C42.975 32.3867 38.6837 30.7311 38.6401 25.7281ZM34.536 13.4499C35.6569 12.034 36.4239 10.1077 36.211 8.15283C34.5886 8.22538 32.5597 9.28634 31.3913 10.6712C30.3576 11.8915 29.4342 13.8916 29.6727 15.7726C31.4952 15.9099 33.3664 14.8438 34.536 13.4499Z" fill="white"/>
<path d="M166.981 0.0991211H80.79L114.55 51.9025H166.981C168.588 51.9012 170.129 51.2562 171.266 50.109C172.403 48.9618 173.043 47.4061 173.047 45.7829V6.22138C173.044 4.59782 172.404 3.04161 171.267 1.89394C170.13 0.746281 168.589 0.100834 166.981 0.0991211Z" fill="url(#paint0_linear_231_133)"/>
<path d="M68.8261 40.911H65.9135L64.318 35.8471H58.7724L57.2526 40.911H54.417L59.9126 23.6712H63.3061L68.8261 40.911ZM63.8371 33.7225L62.3942 29.2209C62.2416 28.761 61.9543 27.678 61.5337 25.9732H61.4824C61.3131 26.7064 61.0425 27.7894 60.6718 29.2209L59.2534 33.7225H63.8371ZM82.9312 34.5426C82.9312 36.6567 82.363 38.3278 81.2254 39.5546C80.2071 40.6467 78.9413 41.1921 77.4317 41.1921C75.8017 41.1921 74.6294 40.6052 73.9176 39.429V45.9515H71.1833V32.5657C71.1833 31.2379 71.1487 29.8764 71.082 28.4799H73.4867L73.6393 30.4503H73.6906C74.6025 28.9657 75.9863 28.2234 77.8434 28.2234C79.2952 28.2234 80.5072 28.8025 81.4768 29.9619C82.4451 31.1239 82.9312 32.6499 82.9312 34.5426ZM80.1455 34.6436C80.1455 33.4337 79.8762 32.4362 79.335 31.6498C78.7437 30.8324 77.9499 30.4231 76.9546 30.4231C76.28 30.4231 75.667 30.6511 75.1194 31.1006C74.5704 31.554 74.2113 32.146 74.0433 32.8792C73.9683 33.1534 73.9257 33.4356 73.9164 33.72V35.794C73.9164 36.6969 74.1908 37.4599 74.7397 38.0843C75.2887 38.7061 76.0017 39.0183 76.879 39.0183C77.9088 39.0183 78.7104 38.6154 79.2837 37.8161C79.8583 37.0143 80.1455 35.9572 80.1455 34.6436ZM97.0863 34.5426C97.0863 36.6567 96.5181 38.3278 95.3805 39.5546C94.3609 40.6467 93.0964 41.1921 91.5856 41.1921C89.9555 41.1921 88.7833 40.6052 88.0715 39.429V45.9515H85.3372V32.5657C85.3372 31.2379 85.3025 29.8764 85.2358 28.4799H87.6406L87.7932 30.4503H87.8445C88.7551 28.9657 90.1389 28.2234 91.9973 28.2234C93.4478 28.2234 94.6598 28.8025 95.6319 29.9619C96.5989 31.1239 97.0863 32.6499 97.0863 34.5426ZM94.2994 34.6436C94.2994 33.4337 94.0288 32.4362 93.4875 31.6498C92.8963 30.8324 92.105 30.4231 91.1098 30.4231C90.4352 30.4231 89.8221 30.6511 89.2719 31.1006C88.723 31.554 88.3652 32.146 88.1972 32.8792C88.1138 33.2212 88.0689 33.4997 88.0689 33.72V35.794C88.0689 36.6969 88.3447 37.4599 88.891 38.0843C89.4399 38.7048 90.153 39.0183 91.0328 39.0183C92.064 39.0183 92.8655 38.6154 93.4375 37.8161C94.0121 37.0143 94.2994 35.9572 94.2994 34.6436ZM112.913 36.0751C112.913 37.5428 112.405 38.7359 111.395 39.657C110.285 40.6622 108.734 41.1662 106.746 41.1662C104.91 41.1662 103.437 40.8086 102.327 40.0922L102.959 37.7902C104.158 38.5079 105.475 38.8655 106.909 38.8655C107.94 38.8655 108.742 38.6297 109.314 38.162C109.887 37.6931 110.177 37.0661 110.177 36.2836C110.177 35.5828 109.937 34.996 109.466 34.518C108.993 34.0412 108.211 33.5969 107.112 33.1888C104.123 32.0631 102.628 30.4166 102.628 28.2506C102.628 26.836 103.156 25.6779 104.211 24.7723C105.265 23.8681 106.663 23.416 108.402 23.416C109.955 23.416 111.249 23.6894 112.276 24.2347L111.59 26.4862C110.623 25.9577 109.532 25.6934 108.311 25.6934C107.346 25.6934 106.59 25.9331 106.049 26.4098C105.593 26.836 105.362 27.3555 105.362 27.9721C105.362 28.6522 105.625 29.217 106.149 29.66C106.603 30.0681 107.431 30.5124 108.629 30.9892C110.099 31.5877 111.179 32.2846 111.87 33.0852C112.566 33.8858 112.913 34.8846 112.913 36.0751ZM121.976 30.5526H118.962V36.5881C118.962 38.1232 119.493 38.8888 120.558 38.8888C121.046 38.8888 121.452 38.8473 121.772 38.7605L121.848 40.8578C121.309 41.0612 120.6 41.1636 119.721 41.1636C118.642 41.1636 117.798 40.8306 117.188 40.1648C116.582 39.4989 116.277 38.3835 116.277 36.8135V30.5474H114.481V28.4747H116.277V26.1986L118.962 25.3799V28.4747H121.976V30.5526ZM135.548 34.5931C135.548 36.5039 135.006 38.0726 133.927 39.2994C132.797 40.5625 131.294 41.1921 129.42 41.1921C127.611 41.1921 126.174 40.5871 125.102 39.3784C124.029 38.1672 123.493 36.6412 123.493 34.8004C123.493 32.874 124.047 31.2962 125.152 30.0694C126.258 28.8413 127.749 28.2273 129.622 28.2273C131.428 28.2273 132.879 28.8336 133.977 30.0435C135.026 31.2172 135.548 32.7328 135.548 34.5931ZM132.713 34.6566C132.713 33.5179 132.47 32.5411 131.981 31.7237C131.408 30.7366 130.587 30.243 129.524 30.243C128.428 30.243 127.588 30.7366 127.016 31.7237C126.526 32.5411 126.283 33.5347 126.283 34.7084C126.283 35.8484 126.526 36.8277 127.016 37.6426C127.608 38.6297 128.432 39.1232 129.501 39.1232C130.546 39.1232 131.365 38.6193 131.958 37.6179C132.461 36.7811 132.713 35.7978 132.713 34.6566ZM144.439 30.9089C144.155 30.857 143.866 30.8314 143.577 30.8324C142.616 30.8324 141.872 31.1977 141.348 31.9335C140.894 32.5813 140.666 33.4 140.666 34.3884V40.911H137.932V32.3947C137.934 31.0898 137.908 29.7849 137.852 28.4812H140.234L140.334 30.8596H140.41C140.7 30.0422 141.154 29.3828 141.777 28.8893C142.347 28.458 143.041 28.2244 143.753 28.2234C144.006 28.2234 144.234 28.2415 144.437 28.2739L144.439 30.9089ZM156.668 34.1073C156.675 34.5271 156.642 34.9467 156.568 35.36H148.365C148.396 36.5881 148.793 37.5286 149.555 38.1763C150.247 38.754 151.14 39.0442 152.238 39.0442C153.453 39.0442 154.561 38.8499 155.557 38.4574L155.986 40.3733C154.821 40.8863 153.446 41.1415 151.86 41.1415C149.952 41.1415 148.454 40.5741 147.363 39.4419C146.276 38.3084 145.731 36.785 145.731 34.8768C145.731 33.0036 146.237 31.4426 147.252 30.1977C148.314 28.8685 149.749 28.204 151.555 28.204C153.328 28.204 154.671 28.8685 155.583 30.1977C156.305 31.2508 156.668 32.5567 156.668 34.1073ZM154.061 33.3909C154.08 32.5709 153.9 31.8649 153.53 31.2677C153.057 30.4982 152.328 30.1147 151.352 30.1147C150.458 30.1147 149.73 30.4891 149.176 31.2405C148.72 31.8377 148.45 32.5554 148.366 33.3883L154.061 33.3909Z" fill="white"/>
<path d="M57.9837 17.5762C57.2231 17.5762 56.5652 17.5386 56.0176 17.4751V9.14024C56.7835 9.02073 57.5575 8.96182 58.3325 8.96406C61.4683 8.96406 62.9124 10.5225 62.9124 13.0628C62.9124 15.9931 61.2066 17.5762 57.9837 17.5762ZM58.4428 10.0328C58.0196 10.0328 57.6592 10.0587 57.3604 10.1209V16.4569C57.522 16.4828 57.8323 16.4945 58.2684 16.4945C60.323 16.4945 61.4926 15.313 61.4926 13.1004C61.4926 11.1274 60.4346 10.0328 58.4428 10.0328ZM67.4127 17.6396C65.6454 17.6396 64.5001 16.3066 64.5001 14.4969C64.5001 12.6107 65.6698 11.2661 67.5128 11.2661C69.2544 11.2661 70.4254 12.5356 70.4254 14.3971C70.4254 16.3066 69.2185 17.6396 67.4127 17.6396ZM67.464 12.2584C66.4932 12.2584 65.8711 13.1755 65.8711 14.458C65.8711 15.7159 66.506 16.6331 67.4512 16.6331C68.3964 16.6331 69.0313 15.6524 69.0313 14.4321C69.0313 13.1885 68.4092 12.2584 67.464 12.2584ZM80.5034 11.3917L78.6116 17.501H77.3792L76.5955 14.848C76.4007 14.199 76.2385 13.5405 76.1095 12.875H76.0838C75.9851 13.5409 75.7978 14.208 75.599 14.848L74.7654 17.501H73.5201L71.7399 11.3917H73.1212L73.8061 14.2961C73.9677 14.9879 74.1036 15.6408 74.2165 16.2574H74.2421C74.3409 15.7431 74.5025 15.1006 74.7397 14.309L75.599 11.393H76.6943L77.5164 14.2469C77.7152 14.9386 77.8768 15.6174 78.0025 16.2587H78.0384C78.1256 15.6304 78.2628 14.9632 78.4488 14.2469L79.1837 11.393L80.5034 11.3917ZM87.4674 17.501H86.1233V13.993C86.1233 12.9126 85.7129 12.3711 84.9037 12.3711C84.1072 12.3711 83.5596 13.0628 83.5596 13.8673V17.501H82.2155V13.138C82.2155 12.5978 82.2027 12.0187 82.1655 11.3904H83.348L83.4108 12.3335H83.448C83.8097 11.6806 84.5433 11.2661 85.3654 11.2661C86.6351 11.2661 87.4687 12.2467 87.4687 13.8427L87.4674 17.501ZM91.1739 17.501H89.8285V8.58838H91.1739V17.501ZM96.0744 17.6396C94.3084 17.6396 93.1618 16.3066 93.1618 14.4969C93.1618 12.6107 94.3314 11.2661 96.1731 11.2661C97.9161 11.2661 99.0857 12.5356 99.0857 14.3971C99.087 16.3066 97.8789 17.6396 96.0744 17.6396ZM96.1244 12.2584C95.1535 12.2584 94.5315 13.1755 94.5315 14.458C94.5315 15.7159 95.1676 16.6331 96.1103 16.6331C97.0568 16.6331 97.6903 15.6524 97.6903 14.4321C97.6916 13.1885 97.0709 12.2584 96.1244 12.2584ZM104.385 17.501L104.288 16.7976H104.252C103.841 17.3637 103.242 17.6396 102.483 17.6396C101.399 17.6396 100.63 16.8727 100.63 15.8416C100.63 14.3337 101.924 13.5538 104.164 13.5538V13.4411C104.164 12.6366 103.743 12.2338 102.909 12.2338C102.313 12.2338 101.789 12.3853 101.329 12.6872L101.056 11.7946C101.615 11.4422 102.313 11.2661 103.132 11.2661C104.712 11.2661 105.51 12.1081 105.51 13.7935V16.0436C105.51 16.6603 105.537 17.1383 105.597 17.5023L104.385 17.501ZM104.2 14.458C102.708 14.458 101.959 14.8233 101.959 15.69C101.959 16.3312 102.345 16.6447 102.881 16.6447C103.564 16.6447 104.2 16.1175 104.2 15.4011V14.458ZM112.037 17.501L111.974 16.5204H111.937C111.55 17.2614 110.902 17.6396 109.995 17.6396C108.537 17.6396 107.457 16.3442 107.457 14.5215C107.457 12.6107 108.576 11.2648 110.105 11.2648C110.914 11.2648 111.488 11.5407 111.811 12.0951H111.838V8.58838H113.183V15.8545C113.183 16.4452 113.197 16.9984 113.233 17.501H112.037ZM111.838 13.9062C111.838 13.0512 111.277 12.3218 110.422 12.3218C109.425 12.3218 108.816 13.2144 108.816 14.471C108.816 15.7029 109.448 16.5463 110.395 16.5463C111.24 16.5463 111.838 15.804 111.838 14.9244V13.9062ZM121.713 17.6396C119.947 17.6396 118.802 16.3066 118.802 14.4969C118.802 12.6107 119.971 11.2661 121.813 11.2661C123.556 11.2661 124.726 12.5356 124.726 14.3971C124.727 16.3066 123.52 17.6396 121.713 17.6396ZM121.763 12.2584C120.794 12.2584 120.172 13.1755 120.172 14.458C120.172 15.7159 120.806 16.6331 121.75 16.6331C122.697 16.6331 123.33 15.6524 123.33 14.4321C123.333 13.1885 122.711 12.2584 121.763 12.2584ZM131.954 17.501H130.609V13.993C130.609 12.9126 130.198 12.3711 129.389 12.3711C128.593 12.3711 128.046 13.0628 128.046 13.8673V17.501H126.701V13.138C126.701 12.5978 126.688 12.0187 126.651 11.3904H127.833L127.896 12.3335H127.933C128.294 11.6806 129.029 11.2648 129.849 11.2648C131.119 11.2648 131.954 12.2454 131.954 13.8414V17.501ZM140.997 12.4099H139.518V15.3765C139.518 16.1317 139.777 16.5087 140.301 16.5087C140.538 16.5087 140.737 16.4828 140.897 16.4452L140.934 17.4764C140.674 17.5774 140.325 17.628 139.892 17.628C138.832 17.628 138.199 17.0372 138.199 15.4905V12.4099H137.316V11.3917H138.199V10.2725L139.518 9.86957V11.3904H140.997V12.4099ZM148.112 17.501H146.77V14.0189C146.77 12.9255 146.361 12.3724 145.55 12.3724C144.854 12.3724 144.205 12.8504 144.205 13.8181V17.501H142.862V8.58838H144.205V12.2584H144.232C144.655 11.5925 145.268 11.2648 146.05 11.2648C147.33 11.2648 148.112 12.27 148.112 13.8673V17.501ZM155.402 14.7728H151.369C151.394 15.9296 152.152 16.5826 153.275 16.5826C153.871 16.5826 154.42 16.4815 154.905 16.2937L155.114 17.2367C154.542 17.4881 153.868 17.6137 153.085 17.6137C151.193 17.6137 150.073 16.4064 150.073 14.5345C150.073 12.6612 151.22 11.2531 152.933 11.2531C154.479 11.2531 155.448 12.4099 155.448 14.1575C155.457 14.3637 155.442 14.5703 155.402 14.7728ZM154.17 13.8051C154.17 12.862 153.699 12.1962 152.84 12.1962C152.068 12.1962 151.457 12.875 151.37 13.8051H154.17Z" fill="white"/>
<defs>
<linearGradient id="paint0_linear_231_133" x1="126.917" y1="52.0401" x2="126.917" y2="-134.788" gradientUnits="userSpaceOnUse">
<stop stop-color="#1A1A1A" stop-opacity="0.1"/>
<stop offset="0.123" stop-color="#212121" stop-opacity="0.151"/>
<stop offset="0.308" stop-color="#353535" stop-opacity="0.227"/>
<stop offset="0.532" stop-color="#575757" stop-opacity="0.318"/>
<stop offset="0.783" stop-color="#858585" stop-opacity="0.421"/>
<stop offset="1" stop-color="#B3B3B3" stop-opacity="0.51"/>
</linearGradient>
</defs>
</svg>
