<svg width="173" height="52" viewBox="0 0 173 52" fill="none" xmlns="http://www.w3.org/2000/svg">
<g clip-path="url(#clip0_231_143)">
<path d="M166.593 51.8946H6.40741C2.81926 51.8946 0 49.0462 0 45.4209V6.57868C0 2.95341 2.81926 0.10498 6.40741 0.10498H166.593C170.181 0.10498 173 2.95341 173 6.57868V45.4209C173 49.0462 170.181 51.8946 166.593 51.8946Z" fill="black"/>
<path d="M166.593 1.14077C169.54 1.14077 171.975 3.60078 171.975 6.57868V45.4209C171.975 48.3988 169.54 50.8588 166.593 50.8588H6.40741C3.46 50.8588 1.02519 48.3988 1.02519 45.4209V6.57868C1.02519 3.60078 3.46 1.14077 6.40741 1.14077H166.593ZM166.593 0.10498H6.40741C2.81926 0.10498 0 3.08288 0 6.57868V45.4209C0 49.0462 2.81926 51.8946 6.40741 51.8946H166.593C170.181 51.8946 173 49.0462 173 45.4209V6.57868C173 3.08288 170.181 0.10498 166.593 0.10498Z" fill="#A6A6A6"/>
<path d="M60.7426 13.3112C60.7426 14.347 60.4863 15.2533 59.8456 15.9007C59.0767 16.6775 58.1796 17.066 57.0263 17.066C55.873 17.066 54.9759 16.6775 54.207 15.9007C53.4382 15.1239 53.0537 14.2175 53.0537 13.0523C53.0537 11.887 53.4382 10.9807 54.207 10.2038C54.9759 9.427 55.873 9.03857 57.0263 9.03857C57.5389 9.03857 58.0515 9.16805 58.5641 9.427C59.0767 9.68594 59.4611 9.94489 59.7174 10.3333L59.0767 10.9807C58.5641 10.3333 57.9233 10.0744 57.0263 10.0744C56.2574 10.0744 55.4885 10.3333 54.9759 10.9807C54.3352 11.4986 54.0789 12.2754 54.0789 13.1817C54.0789 14.0881 54.3352 14.8649 54.9759 15.3828C55.6167 15.9007 56.2574 16.2891 57.0263 16.2891C57.9233 16.2891 58.5641 16.0302 59.2048 15.3828C59.5893 14.9944 59.8456 14.4765 59.8456 13.8291H57.0263V12.7933H60.7426V13.3112ZM66.6374 10.0744H63.1774V12.5344H66.3811V13.4407H63.1774V15.9007H66.6374V16.9365H62.1522V9.16805H66.6374V10.0744ZM70.8663 16.9365H69.8411V10.0744H67.6626V9.16805H73.0448V10.0744H70.8663V16.9365ZM76.7611 16.9365V9.16805H77.7863V16.9365H76.7611ZM82.1433 16.9365H81.1182V10.0744H78.9396V9.16805H84.1937V10.0744H82.0152V16.9365H82.1433ZM94.3174 15.9007C93.5485 16.6775 92.6515 17.066 91.4982 17.066C90.3448 17.066 89.4478 16.6775 88.6789 15.9007C87.91 15.1239 87.5256 14.2175 87.5256 13.0523C87.5256 11.887 87.91 10.9807 88.6789 10.2038C89.4478 9.427 90.3448 9.03857 91.4982 9.03857C92.6515 9.03857 93.5485 9.427 94.3174 10.2038C95.0863 10.9807 95.4707 11.887 95.4707 13.0523C95.4707 14.2175 95.0863 15.1239 94.3174 15.9007ZM89.4478 15.2533C89.9604 15.7712 90.7293 16.1596 91.4982 16.1596C92.267 16.1596 93.0359 15.9007 93.5485 15.2533C94.0611 14.7354 94.4456 13.9586 94.4456 13.0523C94.4456 12.146 94.1893 11.3691 93.5485 10.8512C93.0359 10.3333 92.267 9.94489 91.4982 9.94489C90.7293 9.94489 89.9604 10.2038 89.4478 10.8512C88.9352 11.3691 88.5507 12.146 88.5507 13.0523C88.5507 13.9586 88.807 14.7354 89.4478 15.2533ZM96.8804 16.9365V9.16805H98.0337L101.75 15.2533V9.16805H102.775V16.9365H101.75L97.7774 10.5923V16.9365H96.8804Z" fill="white" stroke="white" stroke-width="1.18519" stroke-miterlimit="10"/>
<path d="M87.2689 28.3304C84.1934 28.3304 81.7586 30.6609 81.7586 33.8978C81.7586 37.0052 84.1934 39.4652 87.2689 39.4652C90.3445 39.4652 92.7793 37.1346 92.7793 33.8978C92.7793 30.5315 90.3445 28.3304 87.2689 28.3304ZM87.2689 37.1346C85.603 37.1346 84.1934 35.7104 84.1934 33.7683C84.1934 31.8262 85.603 30.402 87.2689 30.402C88.9349 30.402 90.3445 31.6967 90.3445 33.7683C90.3445 35.7104 88.9349 37.1346 87.2689 37.1346ZM75.3512 28.3304C72.2756 28.3304 69.8408 30.6609 69.8408 33.8978C69.8408 37.0052 72.2756 39.4652 75.3512 39.4652C78.4267 39.4652 80.8615 37.1346 80.8615 33.8978C80.8615 30.5315 78.4267 28.3304 75.3512 28.3304ZM75.3512 37.1346C73.6852 37.1346 72.2756 35.7104 72.2756 33.7683C72.2756 31.8262 73.6852 30.402 75.3512 30.402C77.0171 30.402 78.4267 31.6967 78.4267 33.7683C78.4267 35.7104 77.0171 37.1346 75.3512 37.1346ZM61.1267 30.0136V32.3441H66.6371C66.5089 33.6388 65.9964 34.6746 65.3556 35.322C64.5867 36.0988 63.3052 37.0052 61.1267 37.0052C57.6667 37.0052 55.1038 34.2862 55.1038 30.7904C55.1038 27.2946 57.7949 24.5756 61.1267 24.5756C62.9208 24.5756 64.3304 25.3525 65.3556 26.2588L67.0215 24.5756C65.6119 23.2809 63.8178 22.2451 61.2549 22.2451C56.6415 22.2451 52.6689 26.1293 52.6689 30.7904C52.6689 35.4515 56.6415 39.3357 61.2549 39.3357C63.8178 39.3357 65.6119 38.5588 67.1497 36.8757C68.6875 35.322 69.2001 33.1209 69.2001 31.4378C69.2001 30.9199 69.2001 30.402 69.0719 30.0136H61.1267ZM119.306 31.8262C118.793 30.5315 117.512 28.3304 114.693 28.3304C111.873 28.3304 109.567 30.5315 109.567 33.8978C109.567 37.0052 111.873 39.4652 114.949 39.4652C117.384 39.4652 118.922 37.9115 119.434 37.0052L117.64 35.7104C116.999 36.6167 116.23 37.2641 114.949 37.2641C113.667 37.2641 112.899 36.7462 112.258 35.5809L119.562 32.4736L119.306 31.8262ZM111.873 33.6388C111.873 31.5672 113.539 30.402 114.693 30.402C115.59 30.402 116.487 30.9199 116.743 31.5672L111.873 33.6388ZM105.85 38.9473H108.285V22.763H105.85V38.9473ZM102.006 29.4957C101.365 28.8483 100.34 28.2009 99.0586 28.2009C96.3675 28.2009 93.8045 30.6609 93.8045 33.7683C93.8045 36.8757 96.2393 39.2062 99.0586 39.2062C100.34 39.2062 101.365 38.5588 101.878 37.9115H102.006V38.6883C102.006 40.7599 100.853 41.9252 99.0586 41.9252C97.649 41.9252 96.6238 40.8894 96.3675 39.9831L94.3171 40.8894C94.9578 42.3136 96.4956 44.1262 99.1867 44.1262C102.006 44.1262 104.313 42.4431 104.313 38.4294V28.5893H102.006V29.4957ZM99.1867 37.1346C97.5208 37.1346 96.1112 35.7104 96.1112 33.7683C96.1112 31.8262 97.5208 30.402 99.1867 30.402C100.853 30.402 102.134 31.8262 102.134 33.7683C102.134 35.7104 100.853 37.1346 99.1867 37.1346ZM130.455 22.763H124.688V38.9473H127.123V32.862H130.455C133.146 32.862 135.709 30.9199 135.709 27.8125C135.709 24.7051 133.146 22.763 130.455 22.763ZM130.583 30.5315H127.123V24.9641H130.583C132.377 24.9641 133.402 26.5178 133.402 27.683C133.274 29.1072 132.249 30.5315 130.583 30.5315ZM145.32 28.2009C143.526 28.2009 141.732 28.9778 141.091 30.6609L143.27 31.5672C143.782 30.6609 144.551 30.402 145.448 30.402C146.73 30.402 147.883 31.1788 148.011 32.4736V32.603C147.627 32.3441 146.602 31.9557 145.576 31.9557C143.27 31.9557 140.963 33.2504 140.963 35.5809C140.963 37.782 142.885 39.2062 144.936 39.2062C146.602 39.2062 147.37 38.4294 148.011 37.6525H148.139V38.9473H150.446V32.7325C150.19 29.8841 148.011 28.2009 145.32 28.2009ZM145.064 37.1346C144.295 37.1346 143.142 36.7462 143.142 35.7104C143.142 34.4157 144.551 34.0273 145.704 34.0273C146.73 34.0273 147.242 34.2862 147.883 34.5451C147.627 36.0988 146.345 37.1346 145.064 37.1346ZM158.519 28.5893L155.828 35.5809H155.7L152.881 28.5893H150.318L154.547 38.4294L152.112 43.8673H154.547L161.082 28.5893H158.519ZM136.99 38.9473H139.425V22.763H136.99V38.9473Z" fill="white"/>
<path d="M13.327 9.81592C12.9426 10.2043 12.8145 10.8517 12.8145 11.6286V40.2423C12.8145 41.0192 13.0707 41.6665 13.4552 42.055L13.5833 42.1844L29.4737 26.1296V25.8707L13.327 9.81592Z" fill="url(#paint0_linear_231_143)"/>
<path d="M34.5998 31.5673L29.3457 26.2589V25.8704L34.5998 20.562L34.7279 20.6915L41.0072 24.3168C42.8013 25.3526 42.8013 27.0357 41.0072 28.0715L34.5998 31.5673Z" fill="url(#paint1_linear_231_143)"/>
<path d="M34.7279 31.4379L29.3457 26L13.3271 42.1843C13.9679 42.8316 14.8649 42.8316 16.0183 42.3137L34.7279 31.4379Z" fill="url(#paint2_linear_231_143)"/>
<path d="M34.7279 20.5621L16.0183 9.81575C14.8649 9.16838 13.9679 9.29785 13.3271 9.94522L29.3457 26L34.7279 20.5621Z" fill="url(#paint3_linear_231_143)"/>
<path opacity="0.2" d="M34.5997 31.3081L16.0183 41.925C14.9931 42.5723 14.096 42.4429 13.4553 41.925L13.3271 42.0545L13.4553 42.1839C14.096 42.7018 14.9931 42.8313 16.0183 42.1839L34.5997 31.3081Z" fill="black"/>
<path opacity="0.12" d="M13.327 41.9253C12.9426 41.5369 12.8145 40.8895 12.8145 40.1127V40.2421C12.8145 41.019 13.0707 41.6664 13.4552 42.0548V41.9253H13.327ZM41.007 27.6832L34.5996 31.3084L34.7278 31.4379L41.007 27.8126C41.9041 27.2947 42.2885 26.6474 42.2885 26C42.2885 26.6474 41.7759 27.1653 41.007 27.6832Z" fill="black"/>
<path opacity="0.25" d="M16.0182 9.94516L41.007 24.3168C41.7759 24.8347 42.2885 25.3526 42.2885 25.9999C42.2885 25.3526 41.9041 24.7052 41.007 24.1873L16.0182 9.81568C14.2241 8.77989 12.8145 9.55673 12.8145 11.6283V11.7578C12.8145 9.81568 14.2241 8.90937 16.0182 9.94516Z" fill="white"/>
</g>
<defs>
<linearGradient id="paint0_linear_231_143" x1="27.9359" y1="11.3826" x2="6.20747" y2="32.8872" gradientUnits="userSpaceOnUse">
<stop stop-color="#00A0FF"/>
<stop offset="0.007" stop-color="#00A1FF"/>
<stop offset="0.26" stop-color="#00BEFF"/>
<stop offset="0.512" stop-color="#00D2FF"/>
<stop offset="0.76" stop-color="#00DFFF"/>
<stop offset="1" stop-color="#00E3FF"/>
</linearGradient>
<linearGradient id="paint1_linear_231_143" x1="43.3574" y1="26.0012" x2="12.3494" y2="26.0012" gradientUnits="userSpaceOnUse">
<stop stop-color="#FFE000"/>
<stop offset="0.409" stop-color="#FFBD00"/>
<stop offset="0.775" stop-color="#FFA500"/>
<stop offset="1" stop-color="#FF9C00"/>
</linearGradient>
<linearGradient id="paint2_linear_231_143" x1="31.8151" y1="28.9727" x2="2.35095" y2="58.1351" gradientUnits="userSpaceOnUse">
<stop stop-color="#FF3A44"/>
<stop offset="1" stop-color="#C31162"/>
</linearGradient>
<linearGradient id="paint3_linear_231_143" x1="9.35071" y1="0.333074" x2="22.5085" y2="13.3561" gradientUnits="userSpaceOnUse">
<stop stop-color="#32A071"/>
<stop offset="0.069" stop-color="#2DA771"/>
<stop offset="0.476" stop-color="#15CF74"/>
<stop offset="0.801" stop-color="#06E775"/>
<stop offset="1" stop-color="#00F076"/>
</linearGradient>
<clipPath id="clip0_231_143">
<rect width="173" height="52" fill="white"/>
</clipPath>
</defs>
</svg>
