<svg width="238" height="22" viewBox="0 0 238 22" fill="none" xmlns="http://www.w3.org/2000/svg">
<path d="M0.643466 19.5V0.590909H4.64134V16.2038H12.7479V19.5H0.643466ZM32.0355 10.0455C32.0355 12.1075 31.6447 13.8617 30.8629 15.3082C30.0874 16.7547 29.0286 17.8596 27.6868 18.6229C26.3511 19.38 24.8492 19.7585 23.1811 19.7585C21.5007 19.7585 19.9927 19.3769 18.657 18.6136C17.3213 17.8504 16.2656 16.7455 15.4901 15.299C14.7145 13.8525 14.3267 12.1013 14.3267 10.0455C14.3267 7.98343 14.7145 6.22917 15.4901 4.78267C16.2656 3.33617 17.3213 2.23437 18.657 1.47727C19.9927 0.714015 21.5007 0.332386 23.1811 0.332386C24.8492 0.332386 26.3511 0.714015 27.6868 1.47727C29.0286 2.23437 30.0874 3.33617 30.8629 4.78267C31.6447 6.22917 32.0355 7.98343 32.0355 10.0455ZM27.9822 10.0455C27.9822 8.70975 27.7822 7.58333 27.3821 6.66619C26.9882 5.74905 26.4311 5.0535 25.7109 4.57955C24.9908 4.10559 24.1475 3.86861 23.1811 3.86861C22.2147 3.86861 21.3714 4.10559 20.6513 4.57955C19.9311 5.0535 19.371 5.74905 18.9709 6.66619C18.5769 7.58333 18.38 8.70975 18.38 10.0455C18.38 11.3812 18.5769 12.5076 18.9709 13.4247C19.371 14.3419 19.9311 15.0374 20.6513 15.5114C21.3714 15.9853 22.2147 16.2223 23.1811 16.2223C24.1475 16.2223 24.9908 15.9853 25.7109 15.5114C26.4311 15.0374 26.9882 14.3419 27.3821 13.4247C27.7822 12.5076 27.9822 11.3812 27.9822 10.0455ZM37.1898 19.5H32.9057L39.4334 0.590909H44.5854L51.1039 19.5H46.8198L42.0833 4.91193H41.9355L37.1898 19.5ZM36.9221 12.0675H47.0414V15.1882H36.9221V12.0675ZM69.1958 0.590909V19.5H65.7427L57.5162 7.59872H57.3777V19.5H53.3798V0.590909H56.8883L65.0502 12.483H65.2164V0.590909H69.1958ZM82.7567 6.02912C82.6829 5.28433 82.3659 4.70573 81.8058 4.29332C81.2456 3.88092 80.4854 3.67471 79.5252 3.67471C78.8728 3.67471 78.3219 3.76704 77.8725 3.9517C77.4232 4.13021 77.0785 4.3795 76.8384 4.69957C76.6045 5.01965 76.4876 5.38281 76.4876 5.78906C76.4753 6.1276 76.546 6.42306 76.6999 6.67543C76.86 6.92779 77.0785 7.14631 77.3555 7.33097C77.6325 7.50947 77.9525 7.66643 78.3157 7.80185C78.6789 7.93111 79.0666 8.0419 79.479 8.13423L81.1779 8.54048C82.0027 8.72514 82.7598 8.97135 83.4492 9.27912C84.1386 9.58688 84.7357 9.96544 85.2404 10.4148C85.7451 10.8641 86.136 11.3935 86.413 12.0028C86.6961 12.6122 86.8408 13.3108 86.8469 14.0987C86.8408 15.2559 86.5453 16.2592 85.9606 17.1087C85.382 17.9519 84.5449 18.6075 83.4492 19.0753C82.3597 19.5369 81.0456 19.7678 79.5067 19.7678C77.9802 19.7678 76.6507 19.5339 75.5181 19.0661C74.3917 18.5982 73.5115 17.9058 72.8775 16.9886C72.2496 16.0653 71.9203 14.9235 71.8896 13.5632H75.7582C75.8013 14.1972 75.9828 14.7266 76.3029 15.1513C76.6291 15.5698 77.0631 15.8868 77.6048 16.1023C78.1526 16.3116 78.7712 16.4162 79.4606 16.4162C80.1377 16.4162 80.7255 16.3177 81.2241 16.1207C81.7288 15.9238 82.1197 15.6499 82.3967 15.299C82.6737 14.9482 82.8121 14.545 82.8121 14.0895C82.8121 13.6648 82.686 13.3078 82.4336 13.0185C82.1874 12.7292 81.8242 12.483 81.3441 12.2798C80.8701 12.0767 80.2885 11.892 79.5991 11.7259L77.5401 11.2088C75.9459 10.821 74.6871 10.2147 73.7638 9.38991C72.8406 8.5651 72.382 7.45407 72.3881 6.05682C72.382 4.91193 72.6867 3.91169 73.3022 3.05611C73.9239 2.20052 74.7764 1.53267 75.8597 1.05256C76.9431 0.572443 78.1741 0.332386 79.5529 0.332386C80.9563 0.332386 82.1812 0.572443 83.2276 1.05256C84.2802 1.53267 85.0988 2.20052 85.6836 3.05611C86.2683 3.91169 86.57 4.9027 86.5884 6.02912H82.7567ZM96.6731 12.9261H100.071L101.779 15.1236L103.459 17.081L106.626 21.0511H102.896L100.717 18.3736L99.6 16.7855L96.6731 12.9261ZM106.912 10.0455C106.912 12.1075 106.522 13.8617 105.74 15.3082C104.964 16.7547 103.906 17.8596 102.564 18.6229C101.228 19.38 99.7261 19.7585 98.0581 19.7585C96.3777 19.7585 94.8696 19.3769 93.5339 18.6136C92.1982 17.8504 91.1426 16.7455 90.367 15.299C89.5914 13.8525 89.2037 12.1013 89.2037 10.0455C89.2037 7.98343 89.5914 6.22917 90.367 4.78267C91.1426 3.33617 92.1982 2.23437 93.5339 1.47727C94.8696 0.714015 96.3777 0.332386 98.0581 0.332386C99.7261 0.332386 101.228 0.714015 102.564 1.47727C103.906 2.23437 104.964 3.33617 105.74 4.78267C106.522 6.22917 106.912 7.98343 106.912 10.0455ZM102.859 10.0455C102.859 8.70975 102.659 7.58333 102.259 6.66619C101.865 5.74905 101.308 5.0535 100.588 4.57955C99.8677 4.10559 99.0244 3.86861 98.0581 3.86861C97.0917 3.86861 96.2484 4.10559 95.5282 4.57955C94.8081 5.0535 94.2479 5.74905 93.8478 6.66619C93.4539 7.58333 93.2569 8.70975 93.2569 10.0455C93.2569 11.3812 93.4539 12.5076 93.8478 13.4247C94.2479 14.3419 94.8081 15.0374 95.5282 15.5114C96.2484 15.9853 97.0917 16.2223 98.0581 16.2223C99.0244 16.2223 99.8677 15.9853 100.588 15.5114C101.308 15.0374 101.865 14.3419 102.259 13.4247C102.659 12.5076 102.859 11.3812 102.859 10.0455ZM121.554 0.590909H125.551V12.8707C125.551 14.2495 125.222 15.456 124.564 16.4901C123.911 17.5241 122.997 18.3305 121.821 18.9091C120.646 19.4815 119.276 19.7678 117.713 19.7678C116.143 19.7678 114.77 19.4815 113.595 18.9091C112.419 18.3305 111.505 17.5241 110.853 16.4901C110.2 15.456 109.874 14.2495 109.874 12.8707V0.590909H113.872V12.5291C113.872 13.2493 114.029 13.8894 114.343 14.4496C114.663 15.0097 115.112 15.4498 115.691 15.7699C116.269 16.09 116.943 16.25 117.713 16.25C118.488 16.25 119.162 16.09 119.735 15.7699C120.313 15.4498 120.76 15.0097 121.074 14.4496C121.394 13.8894 121.554 13.2493 121.554 12.5291V0.590909ZM132.839 0.590909V19.5H128.841V0.590909H132.839ZM152.812 7.21094H148.768C148.694 6.68774 148.543 6.22301 148.315 5.81676C148.088 5.40436 147.795 5.0535 147.438 4.7642C147.081 4.4749 146.669 4.25331 146.201 4.09943C145.739 3.94555 145.238 3.86861 144.696 3.86861C143.717 3.86861 142.865 4.11174 142.138 4.59801C141.412 5.07812 140.849 5.77983 140.449 6.70312C140.049 7.62026 139.849 8.73437 139.849 10.0455C139.849 11.3935 140.049 12.526 140.449 13.4432C140.855 14.3603 141.421 15.0528 142.148 15.5206C142.874 15.9884 143.714 16.2223 144.668 16.2223C145.204 16.2223 145.699 16.1515 146.155 16.0099C146.616 15.8684 147.026 15.6622 147.383 15.3913C147.74 15.1143 148.035 14.7789 148.269 14.3849C148.509 13.991 148.675 13.5417 148.768 13.0369L152.812 13.0554C152.707 13.9233 152.446 14.7604 152.027 15.5668C151.615 16.367 151.058 17.084 150.356 17.718C149.66 18.3459 148.829 18.8445 147.863 19.2138C146.903 19.5769 145.816 19.7585 144.604 19.7585C142.917 19.7585 141.409 19.3769 140.08 18.6136C138.756 17.8504 137.71 16.7455 136.94 15.299C136.177 13.8525 135.795 12.1013 135.795 10.0455C135.795 7.98343 136.183 6.22917 136.959 4.78267C137.734 3.33617 138.787 2.23437 140.116 1.47727C141.446 0.714015 142.942 0.332386 144.604 0.332386C145.699 0.332386 146.715 0.486268 147.651 0.794034C148.592 1.1018 149.426 1.55114 150.153 2.14204C150.879 2.7268 151.47 3.44389 151.925 4.29332C152.387 5.14276 152.683 6.11529 152.812 7.21094ZM155.679 19.5V0.590909H159.676V8.92827H159.926L166.73 0.590909H171.522L164.505 9.05753L171.605 19.5H166.823L161.643 11.7259L159.676 14.1264V19.5H155.679ZM189.42 0.590909V19.5H185.967L177.741 7.59872H177.602V19.5H173.604V0.590909H177.113L185.275 12.483H185.441V0.590909H189.42ZM210.1 10.0455C210.1 12.1075 209.709 13.8617 208.927 15.3082C208.152 16.7547 207.093 17.8596 205.751 18.6229C204.416 19.38 202.914 19.7585 201.246 19.7585C199.565 19.7585 198.057 19.3769 196.721 18.6136C195.386 17.8504 194.33 16.7455 193.555 15.299C192.779 13.8525 192.391 12.1013 192.391 10.0455C192.391 7.98343 192.779 6.22917 193.555 4.78267C194.33 3.33617 195.386 2.23437 196.721 1.47727C198.057 0.714015 199.565 0.332386 201.246 0.332386C202.914 0.332386 204.416 0.714015 205.751 1.47727C207.093 2.23437 208.152 3.33617 208.927 4.78267C209.709 6.22917 210.1 7.98343 210.1 10.0455ZM206.047 10.0455C206.047 8.70975 205.847 7.58333 205.447 6.66619C205.053 5.74905 204.496 5.0535 203.775 4.57955C203.055 4.10559 202.212 3.86861 201.246 3.86861C200.279 3.86861 199.436 4.10559 198.716 4.57955C197.996 5.0535 197.435 5.74905 197.035 6.66619C196.641 7.58333 196.444 8.70975 196.444 10.0455C196.444 11.3812 196.641 12.5076 197.035 13.4247C197.435 14.3419 197.996 15.0374 198.716 15.5114C199.436 15.9853 200.279 16.2223 201.246 16.2223C202.212 16.2223 203.055 15.9853 203.775 15.5114C204.496 15.0374 205.053 14.3419 205.447 13.4247C205.847 12.5076 206.047 11.3812 206.047 10.0455ZM216.607 19.5L211.196 0.590909H215.564L218.694 13.7294H218.85L222.304 0.590909H226.043L229.487 13.7571H229.653L232.783 0.590909H237.15L231.74 19.5H227.843L224.243 7.13707H224.095L220.503 19.5H216.607Z" fill="#73A7FC"/>
</svg>
