<svg width="204" height="40" viewBox="0 0 204 40" fill="none" xmlns="http://www.w3.org/2000/svg">
<path fill-rule="evenodd" clip-rule="evenodd" d="M5.55641 19.7944C5.55641 11.9307 11.9309 5.55622 19.7946 5.55622C27.6587 5.55622 34.0328 11.9307 34.0328 19.7944C34.0328 27.6578 27.6587 34.0324 19.7946 34.0324C11.9309 34.0324 5.55641 27.6578 5.55641 19.7944ZM19.7946 4.51444C28.2338 4.51444 35.0749 11.3552 35.0749 19.7944C35.0749 28.233 28.2338 35.0745 19.7946 35.0745C11.3558 35.0745 4.5146 28.233 4.5146 19.7944C4.5146 11.3552 11.3558 4.51444 19.7946 4.51444ZM19.7946 3.47262C28.809 3.47262 36.1165 10.7802 36.1165 19.7944C36.1165 28.8085 28.809 36.1163 19.7946 36.1163C10.7806 36.1163 3.47281 28.8085 3.47281 19.7944C3.47281 10.7802 10.7806 3.47262 19.7946 3.47262ZM30.9074 0H8.68214C3.90693 0 0 3.9061 0 8.68163V30.9069C0 35.6821 3.90695 39.5891 8.68214 39.5891H30.9074C35.6826 39.5891 39.5896 35.6821 39.5896 30.9069V8.68163C39.5896 3.90607 35.6826 0 30.9074 0Z" fill="#73A7FC"/>
<path fill-rule="evenodd" clip-rule="evenodd" d="M29.8631 19.7943C29.8631 14.234 25.3556 9.72656 19.7953 9.72656C14.235 9.72656 9.72754 14.2341 9.72754 19.7943C9.72754 25.3546 14.235 29.8621 19.7953 29.8621C25.3556 29.8622 29.8631 25.3546 29.8631 19.7943ZM19.239 15.1618V13.2207C19.239 12.9275 19.4892 12.6877 19.7953 12.6877C20.1014 12.6877 20.3516 12.9275 20.3516 13.2207V15.1794C21.8437 15.3524 23.1245 16.1259 23.2365 17.7798H21.2985L21.2927 17.7551C21.0868 16.8566 20.3826 16.723 19.5863 16.723C18.9809 16.723 18.2885 16.9714 18.2885 17.6849C18.2885 17.7959 18.3005 17.9092 18.348 18.0107C18.5882 18.5249 20.4015 18.8631 20.8927 18.9816C22.2866 19.3181 23.5414 19.9188 23.5414 21.5823C23.5414 23.4595 22.0004 24.2863 20.3516 24.426V26.3679C20.3516 26.6611 20.1014 26.901 19.7953 26.901C19.4892 26.901 19.239 26.6611 19.239 26.3679V24.4175C17.5794 24.2471 16.1784 23.3431 16.0491 21.5501H17.987L17.9913 21.5761C18.1644 22.5926 18.9949 22.8656 19.9077 22.8656C20.5884 22.8656 21.5885 22.6706 21.5885 21.8049C21.5885 19.98 16.3358 21.1662 16.3358 17.8456C16.3358 16.1802 17.755 15.3042 19.239 15.1618Z" fill="#FFBD00"/>
<path d="M55.8659 11.8108H59.2334V22.1543C59.2334 23.3157 58.956 24.3319 58.4013 25.2029C57.8517 26.074 57.0817 26.7532 56.0915 27.2405C55.1012 27.7227 53.9476 27.9638 52.6306 27.9638C51.3085 27.9638 50.1523 27.7227 49.1621 27.2405C48.1718 26.7532 47.4018 26.074 46.8523 25.2029C46.3027 24.3319 46.0279 23.3157 46.0279 22.1543V11.8108H49.3954V21.8666C49.3954 22.4732 49.5276 23.0124 49.792 23.4842C50.0616 23.956 50.4401 24.3267 50.9275 24.5963C51.4148 24.8659 51.9826 25.0007 52.6306 25.0007C53.2839 25.0007 53.8517 24.8659 54.3338 24.5963C54.8212 24.3267 55.1971 23.956 55.4615 23.4842C55.7311 23.0124 55.8659 22.4732 55.8659 21.8666V11.8108ZM70.6444 16.3915C70.5822 15.7641 70.3151 15.2768 69.8433 14.9294C69.3715 14.582 68.7312 14.4083 67.9224 14.4083C67.3728 14.4083 66.9088 14.4861 66.5303 14.6416C66.1518 14.792 65.8615 15.002 65.6592 15.2716C65.4622 15.5412 65.3637 15.8471 65.3637 16.1893C65.3533 16.4744 65.413 16.7233 65.5426 16.9359C65.6774 17.1485 65.8615 17.3325 66.0948 17.4881C66.3281 17.6384 66.5977 17.7706 66.9036 17.8847C67.2095 17.9936 67.5361 18.0869 67.8835 18.1647L69.3145 18.5069C70.0092 18.6624 70.647 18.8698 71.2277 19.129C71.8084 19.3883 72.3113 19.7071 72.7364 20.0856C73.1616 20.4641 73.4908 20.91 73.7241 21.4233C73.9626 21.9366 74.0845 22.525 74.0896 23.1887C74.0845 24.1634 73.8356 25.0085 73.343 25.724C72.8557 26.4343 72.1505 26.9865 71.2277 27.3805C70.31 27.7694 69.203 27.9638 67.9068 27.9638C66.621 27.9638 65.5011 27.7668 64.5471 27.3728C63.5983 26.9787 62.8569 26.3954 62.3229 25.6229C61.794 24.8452 61.5166 23.8834 61.4907 22.7376H64.7493C64.7856 23.2716 64.9386 23.7175 65.2082 24.0753C65.483 24.4278 65.8485 24.6948 66.3047 24.8763C66.7662 25.0526 67.2873 25.1407 67.8679 25.1407C68.4383 25.1407 68.9334 25.0578 69.3534 24.8919C69.7785 24.7259 70.1078 24.4952 70.3411 24.1997C70.5744 23.9042 70.691 23.5646 70.691 23.1809C70.691 22.8231 70.5848 22.5224 70.3722 22.2788C70.1648 22.0351 69.8589 21.8277 69.4545 21.6566C69.0553 21.4855 68.5653 21.3299 67.9846 21.19L66.2503 20.7544C64.9075 20.4278 63.8472 19.9171 63.0695 19.2223C62.2918 18.5276 61.9055 17.5917 61.9107 16.4148C61.9055 15.4504 62.1621 14.6079 62.6806 13.8872C63.2043 13.1666 63.9224 12.604 64.8349 12.1996C65.7474 11.7952 66.7843 11.593 67.9457 11.593C69.1278 11.593 70.1596 11.7952 71.041 12.1996C71.9276 12.604 72.6172 13.1666 73.1097 13.8872C73.6023 14.6079 73.8563 15.4427 73.8719 16.3915H70.6444ZM78.7365 27.7383H75.1279L80.6263 11.8108H84.9659L90.4566 27.7383H86.848L82.8583 15.4504H82.7339L78.7365 27.7383ZM78.5109 21.4777H87.0346V24.1064H78.5109V21.4777ZM105.678 17.3869H102.272C102.21 16.9462 102.083 16.5548 101.891 16.2126C101.699 15.8652 101.453 15.5697 101.152 15.326C100.851 15.0823 100.504 14.8957 100.11 14.7661C99.721 14.6364 99.2985 14.5716 98.8422 14.5716C98.0179 14.5716 97.2998 14.7764 96.688 15.186C96.0762 15.5904 95.6018 16.1815 95.2648 16.9592C94.9278 17.7317 94.7593 18.6702 94.7593 19.7745C94.7593 20.91 94.9278 21.864 95.2648 22.6365C95.607 23.409 96.084 23.9923 96.6958 24.3863C97.3076 24.7804 98.0153 24.9774 98.8189 24.9774C99.27 24.9774 99.6873 24.9178 100.071 24.7985C100.46 24.6793 100.805 24.5056 101.105 24.2775C101.406 24.0442 101.655 23.7616 101.852 23.4298C102.054 23.0979 102.194 22.7195 102.272 22.2943L105.678 22.3099C105.59 23.0409 105.37 23.746 105.017 24.4252C104.67 25.0992 104.201 25.7033 103.61 26.2373C103.024 26.7661 102.324 27.1861 101.51 27.4972C100.701 27.8031 99.7859 27.956 98.7645 27.956C97.3438 27.956 96.0736 27.6346 94.9537 26.9917C93.839 26.3488 92.9576 25.4181 92.3095 24.1997C91.6666 22.9813 91.3451 21.5062 91.3451 19.7745C91.3451 18.0376 91.6717 16.56 92.325 15.3416C92.9783 14.1232 93.8649 13.1951 94.9848 12.5574C96.1047 11.9145 97.3646 11.593 98.7645 11.593C99.6873 11.593 100.543 11.7226 101.331 11.9819C102.124 12.2411 102.827 12.6196 103.439 13.1173C104.05 13.6099 104.548 14.2139 104.932 14.9294C105.321 15.6449 105.569 16.4641 105.678 17.3869ZM110.539 27.7383H106.93L112.429 11.8108H116.768L122.259 27.7383H118.651L114.661 15.4504H114.536L110.539 27.7383ZM110.313 21.4777H118.837V24.1064H110.313V21.4777ZM132.453 16.3915C132.391 15.7641 132.124 15.2768 131.652 14.9294C131.18 14.582 130.54 14.4083 129.731 14.4083C129.181 14.4083 128.717 14.4861 128.339 14.6416C127.96 14.792 127.67 15.002 127.468 15.2716C127.271 15.5412 127.172 15.8471 127.172 16.1893C127.162 16.4744 127.222 16.7233 127.351 16.9359C127.486 17.1485 127.67 17.3325 127.903 17.4881C128.137 17.6384 128.406 17.7706 128.712 17.8847C129.018 17.9936 129.345 18.0869 129.692 18.1647L131.123 18.5069C131.818 18.6624 132.456 18.8698 133.036 19.129C133.617 19.3883 134.12 19.7071 134.545 20.0856C134.97 20.4641 135.299 20.91 135.533 21.4233C135.771 21.9366 135.893 22.525 135.898 23.1887C135.893 24.1634 135.644 25.0085 135.152 25.724C134.664 26.4343 133.959 26.9865 133.036 27.3805C132.119 27.7694 131.012 27.9638 129.715 27.9638C128.43 27.9638 127.31 27.7668 126.356 27.3728C125.407 26.9787 124.665 26.3954 124.131 25.6229C123.603 24.8452 123.325 23.8834 123.299 22.7376H126.558C126.594 23.2716 126.747 23.7175 127.017 24.0753C127.292 24.4278 127.657 24.6948 128.113 24.8763C128.575 25.0526 129.096 25.1407 129.677 25.1407C130.247 25.1407 130.742 25.0578 131.162 24.8919C131.587 24.7259 131.916 24.4952 132.15 24.1997C132.383 23.9042 132.5 23.5646 132.5 23.1809C132.5 22.8231 132.393 22.5224 132.181 22.2788C131.973 22.0351 131.667 21.8277 131.263 21.6566C130.864 21.4855 130.374 21.3299 129.793 21.19L128.059 20.7544C126.716 20.4278 125.656 19.9171 124.878 19.2223C124.1 18.5276 123.714 17.5917 123.719 16.4148C123.714 15.4504 123.971 14.6079 124.489 13.8872C125.013 13.1666 125.731 12.604 126.643 12.1996C127.556 11.7952 128.593 11.593 129.754 11.593C130.936 11.593 131.968 11.7952 132.85 12.1996C133.736 12.604 134.426 13.1666 134.918 13.8872C135.411 14.6079 135.665 15.4427 135.68 16.3915H132.453ZM138.163 27.7383V11.8108H141.531V18.3824H148.367V11.8108H151.727V27.7383H148.367V21.1588H141.531V27.7383H138.163ZM154.503 27.7383V11.8108H157.87V24.9619H164.699V27.7383H154.503ZM170.296 11.8108V27.7383H166.929V11.8108H170.296ZM186.389 11.8108V27.7383H183.481L176.551 17.7136H176.434V27.7383H173.067V11.8108H176.022L182.897 21.8277H183.037V11.8108H186.389ZM189.171 27.7383V11.8108H192.539V18.8335H192.749L198.481 11.8108H202.517L196.606 18.9424L202.587 27.7383H198.558L194.195 21.19L192.539 23.212V27.7383H189.171Z" fill="#73A7FC"/>
</svg>
