<svg width="40" height="40" viewBox="0 0 40 40" fill="none" xmlns="http://www.w3.org/2000/svg">
<path d="M27.25 7H13.75C10.0221 7 7 10.0221 7 13.75V27.25C7 30.9779 10.0221 34 13.75 34H27.25C30.9779 34 34 30.9779 34 27.25V13.75C34 10.0221 30.9779 7 27.25 7Z" stroke="white" stroke-width="2" stroke-linecap="round" stroke-linejoin="round"/>
<path d="M20 25C22.7614 25 25 22.7614 25 20C25 17.2386 22.7614 15 20 15C17.2386 15 15 17.2386 15 20C15 22.7614 17.2386 25 20 25Z" stroke="white" stroke-width="2" stroke-linecap="round" stroke-linejoin="round"/>
<path d="M28 13V13.0025" stroke="white" stroke-width="2" stroke-linecap="round" stroke-linejoin="round"/>
</svg>
