 <svg width="41" height="40" viewBox="0 0 41 40" fill="none" xmlns="http://www.w3.org/2000/svg">
            <g clip-path="url(#clip0_231_157)">
            <path d="M39.8184 7.15473C39.6443 5.4976 38.9064 3.95053 37.7281 2.7723C36.5499 1.59408 35.0028 0.856167 33.3457 0.682006C24.8096 -0.233195 16.2 -0.233195 7.66389 0.682006C6.00512 0.854208 4.45593 1.59126 3.27587 2.76965C2.09582 3.94805 1.3566 5.49621 1.18207 7.15473C0.271342 15.6911 0.271342 24.3002 1.18207 32.8365C1.35427 34.4953 2.09132 36.0445 3.26972 37.2246C4.44812 38.4046 5.99627 39.1438 7.65479 39.3184C16.1909 40.2336 24.8005 40.2336 33.3366 39.3184C34.9954 39.1462 36.5446 38.4091 37.7246 37.2307C38.9047 36.0523 39.6439 34.5042 39.8184 32.8456C40.7298 24.3063 40.7298 15.6941 39.8184 7.15473Z" fill="#21222B"/>
            <g clip-path="url(#clip1_231_157)">
            <path d="M17.3476 22.6505L17.0168 27.3039C17.4901 27.3039 17.6951 27.1005 17.941 26.8564L20.1601 24.7355L24.7585 28.103C25.6018 28.573 26.196 28.3255 26.4235 27.3272L29.4418 13.1839L29.4426 13.183C29.7101 11.9364 28.9918 11.4489 28.1701 11.7547L10.4285 18.5472C9.21765 19.0172 9.23598 19.6922 10.2226 19.998L14.7585 21.4089L25.2943 14.8164C25.7901 14.488 26.241 14.6697 25.8701 14.998L17.3476 22.6505Z" fill="white"/>
            </g>
            </g>
            <defs>
            <clipPath id="clip0_231_157">
            <rect width="40" height="40" fill="white" transform="translate(0.5)"/>
            </clipPath>
            <clipPath id="clip1_231_157">
            <rect width="20" height="20" fill="white" transform="translate(9.5 10)"/>
            </clipPath>
            </defs>
        </svg>