<svg xmlns="http://www.w3.org/2000/svg" width="41" height="40" viewBox="0 0 41 40" fill="none">
  <path d="M39.6673 6.68336C38.0007 7.50002 36.3673 7.83169 34.6673 8.33336C32.799 6.22502 30.029 6.10836 27.3673 7.10502C24.7057 8.10169 22.9623 10.5384 23.0007 13.3334V15C17.5923 15.1384 12.7757 12.675 9.66732 8.33336C9.66732 8.33336 2.69732 20.7217 16.334 26.6667C13.214 28.745 10.1023 30.1467 6.33398 30C11.8473 33.005 17.8557 34.0384 23.0573 32.5284C29.024 30.795 33.9273 26.3234 35.809 19.625C36.3703 17.5878 36.649 15.4831 36.6373 13.37C36.634 12.955 39.154 8.75002 39.6673 6.68169V6.68336Z" stroke="black" stroke-width="2" stroke-linecap="round" stroke-linejoin="round"/>
</svg>