<svg width="40" height="40" viewBox="0 0 40 40" fill="none" xmlns="http://www.w3.org/2000/svg">
<path d="M36.6663 6.68433C34.9997 7.501 33.3663 7.83267 31.6663 8.33433C29.798 6.226 27.028 6.10933 24.3663 7.106C21.7047 8.10267 19.9613 10.5393 19.9997 13.3343V15.001C14.5913 15.1393 9.77467 12.676 6.66634 8.33433C6.66634 8.33433 -0.303659 20.7227 13.333 26.6677C10.213 28.746 7.10134 30.1477 3.33301 30.001C8.84634 33.006 14.8547 34.0393 20.0563 32.5293C26.023 30.796 30.9263 26.3243 32.808 19.626C33.3693 17.5888 33.648 15.4841 33.6363 13.371C33.633 12.956 36.153 8.751 36.6663 6.68267V6.68433Z" stroke="white" stroke-width="2" stroke-linecap="round" stroke-linejoin="round"/>
</svg>
