<svg width="41" height="40" viewBox="0 0 41 40" fill="none" xmlns="http://www.w3.org/2000/svg">
<g clip-path="url(#clip0_231_169)">
<path d="M29.9416 14.4411C29.7666 13.7593 29.2597 12.9843 28.6234 12.3184C27.8416 11.5002 26.8416 10.8321 25.9666 10.6366C22.3544 9.94796 18.6446 9.94796 15.0325 10.6366C13.4416 10.9911 11.4484 12.9093 11.0597 14.4411C10.4098 17.3983 10.4098 20.4613 11.0597 23.4184C11.3734 24.6571 12.7347 26.1457 14.0825 26.8571C14.3815 27.0212 14.7009 27.145 15.0325 27.2252C15.0666 27.2306 15.0977 27.248 15.1202 27.2742C15.1427 27.3005 15.1551 27.3339 15.1552 27.3684V31.7343C15.1556 31.7824 15.1703 31.8292 15.1975 31.8688C15.2247 31.9084 15.2632 31.939 15.3079 31.9566C15.3526 31.9742 15.4016 31.978 15.4485 31.9676C15.4954 31.9571 15.5381 31.9329 15.5711 31.898L17.6461 29.773C17.6461 29.773 19.2961 28.0752 19.5938 27.773C19.6076 27.7579 19.6246 27.7461 19.6434 27.7382C19.6622 27.7304 19.6825 27.7267 19.7029 27.7275C21.8028 27.784 23.9028 27.6148 25.9666 27.223C27.5575 26.8661 29.5507 24.9502 29.9416 23.4161C30.5912 20.4597 30.5912 17.3975 29.9416 14.4411ZM26.0234 23.6366C25.7277 24.3102 25.2202 24.8688 24.5779 25.2275C24.3764 25.3138 24.1671 25.3808 23.9529 25.4275C23.7097 25.3525 23.4779 25.3025 23.2711 25.2139C21.5517 24.5426 19.9516 23.5987 18.5325 22.4184C18.1108 22.0566 17.7137 21.6671 17.3438 21.2525C16.4339 20.203 15.6695 19.0356 15.0711 17.7821C14.7802 17.1911 14.5347 16.5752 14.2847 15.9639C14.0575 15.4048 14.3938 14.8275 14.7393 14.4116C15.0771 14.0255 15.4931 13.7156 15.9597 13.5025C16.1238 13.4196 16.3117 13.3969 16.4907 13.4384C16.6698 13.48 16.8285 13.5831 16.9393 13.7298C17.5151 14.385 18.023 15.097 18.4552 15.8548C18.5916 16.0752 18.6382 16.3395 18.5853 16.5933C18.5325 16.8471 18.3842 17.0708 18.1711 17.2184C18.0575 17.2957 17.9438 17.3889 17.8461 17.473C17.7502 17.5465 17.6672 17.6356 17.6007 17.7366C17.5433 17.8305 17.5085 17.9365 17.4991 18.0461C17.4896 18.1557 17.5057 18.2661 17.5461 18.3684C17.9278 19.5348 18.6614 20.5542 19.6461 21.2866C19.984 21.5238 20.3468 21.7235 20.7279 21.8821C20.978 22.016 21.258 22.084 21.5416 22.0798C22.037 22.0207 22.2007 21.473 22.5461 21.1889C22.7052 21.0597 22.9017 20.9853 23.1064 20.9767C23.3111 20.9681 23.5131 21.0258 23.6825 21.1411C24.0507 21.3684 24.4052 21.623 24.7597 21.873C25.1099 22.113 25.4475 22.3709 25.7711 22.6457C25.9215 22.756 26.0289 22.9152 26.0749 23.0959C26.1209 23.2767 26.1027 23.4678 26.0234 23.6366ZM22.7597 18.1821C22.7459 18.1439 22.7367 18.1042 22.7325 18.0639C22.7209 17.9109 22.6982 17.759 22.6643 17.6093C22.5974 17.3053 22.4251 17.0348 22.1779 16.8457C22.0583 16.7603 21.9255 16.695 21.7847 16.6525C21.6052 16.6048 21.4166 16.6184 21.2393 16.5752C21.1515 16.5592 21.0736 16.5091 21.0225 16.4359C20.9714 16.3627 20.9513 16.2723 20.9666 16.1843C20.9839 16.1004 21.0309 16.0255 21.0989 15.9733C21.1669 15.9211 21.2514 15.8952 21.337 15.9002C22.3779 15.9798 23.1552 16.4775 23.3552 17.5957C23.3759 17.6993 23.3904 17.804 23.3984 17.9093C23.4133 18.0034 23.4133 18.0993 23.3984 18.1934C23.3861 18.2513 23.3565 18.3041 23.3134 18.3447C23.2704 18.3853 23.216 18.4118 23.1575 18.4207H23.1438H23.0734H23.1166C23.0387 18.4283 22.9606 18.4086 22.8955 18.3651C22.8305 18.3216 22.7825 18.2569 22.7597 18.1821ZM22.4279 15.3639C22.0771 15.201 21.7054 15.0878 21.3234 15.0275C21.1552 15.0002 20.987 14.9821 20.8188 14.9616C20.7748 14.9594 20.7318 14.9482 20.6923 14.9286C20.6528 14.9091 20.6178 14.8816 20.5895 14.8479C20.5611 14.8142 20.54 14.775 20.5274 14.7328C20.5149 14.6906 20.5112 14.6462 20.5166 14.6025C20.5169 14.5582 20.5266 14.5144 20.545 14.474C20.5633 14.4337 20.59 14.3976 20.6232 14.3682C20.6565 14.3389 20.6955 14.3168 20.7378 14.3035C20.7801 14.2903 20.8248 14.286 20.8688 14.2911C21.5363 14.3158 22.1903 14.4865 22.7847 14.7911C23.5104 15.1555 24.1028 15.7392 24.4779 16.4593C24.6887 16.8824 24.8299 17.3367 24.8961 17.8048C24.9087 17.8656 24.9178 17.927 24.9234 17.9889C24.9347 18.1252 24.9393 18.2593 24.9507 18.4298V18.4934C24.949 18.5609 24.9399 18.628 24.9234 18.6934C24.903 18.7589 24.863 18.8165 24.8087 18.8585C24.7545 18.9004 24.6886 18.9247 24.6201 18.9279C24.5516 18.9311 24.4837 18.9132 24.4258 18.8765C24.3678 18.8399 24.3225 18.7862 24.2961 18.723C24.2706 18.6313 24.2591 18.5363 24.262 18.4411C24.2667 17.9336 24.1661 17.4306 23.9666 16.9639C23.9211 16.8616 23.8711 16.7639 23.8143 16.6639C23.488 16.1058 23.0063 15.6549 22.4279 15.3661V15.3639ZM26.1825 19.5571C25.9552 19.5571 25.8438 19.3661 25.8279 19.1548C25.7984 18.7389 25.7757 18.3184 25.7188 17.9071C25.6211 17.2083 25.378 16.5379 25.0052 15.9389C24.6219 15.3158 24.1125 14.7798 23.5097 14.3653C22.907 13.9508 22.2242 13.667 21.5052 13.5321C21.1779 13.4752 20.8438 13.4616 20.5143 13.4275C20.3052 13.4048 20.0302 13.3911 19.9847 13.1321C19.9783 13.0818 19.9826 13.0307 19.9973 12.9823C20.0121 12.9338 20.0369 12.889 20.0701 12.8508C20.1034 12.8126 20.1444 12.7818 20.1904 12.7606C20.2364 12.7393 20.2864 12.7281 20.337 12.7275C20.3915 12.7233 20.4462 12.7233 20.5007 12.7275H20.5734C21.5547 12.7464 22.5166 13.0047 23.3753 13.48C24.234 13.9553 24.9636 14.6332 25.5007 15.4548C25.9315 16.1231 26.2237 16.8713 26.3597 17.6548C26.4461 18.148 26.4779 18.6525 26.5166 19.1502C26.5247 19.1994 26.5222 19.2497 26.5093 19.2979C26.4964 19.346 26.4733 19.3908 26.4417 19.4294C26.4101 19.4679 26.3706 19.4992 26.3259 19.5212C26.2812 19.5432 26.2323 19.5555 26.1825 19.5571Z" fill="#21222B"/>
<path d="M39.8184 7.15473C39.6443 5.4976 38.9064 3.95052 37.7281 2.7723C36.5499 1.59408 35.0028 0.856167 33.3457 0.682006C24.8096 -0.233195 16.2 -0.233195 7.66389 0.682006C6.00512 0.854208 4.45593 1.59126 3.27587 2.76965C2.09582 3.94805 1.3566 5.49621 1.18207 7.15473C0.271342 15.6911 0.271342 24.3002 1.18207 32.8365C1.35427 34.4953 2.09132 36.0445 3.26972 37.2246C4.44812 38.4046 5.99627 39.1438 7.65479 39.3184C16.1909 40.2336 24.8005 40.2336 33.3366 39.3184C34.9954 39.1462 36.5446 38.4091 37.7246 37.2307C38.9047 36.0523 39.6439 34.5042 39.8184 32.8456C40.7298 24.3063 40.7298 15.6941 39.8184 7.15473ZM32.0548 23.8956V23.9229C31.473 26.2843 28.8412 28.8138 26.4253 29.3411H26.398C24.4543 29.7152 22.4796 29.9047 20.5003 29.907C19.923 29.907 19.3412 29.8888 18.7639 29.8525L16.0957 32.6297C15.949 32.7805 15.7608 32.8841 15.555 32.9275C15.3492 32.9709 15.1351 32.952 14.9401 32.8733C14.7451 32.7945 14.5779 32.6595 14.4599 32.4854C14.3419 32.3113 14.2784 32.106 14.2775 31.8956V29.2593C13.6508 29.0738 13.0544 28.7982 12.5071 28.4411C10.8298 27.3752 9.37525 25.6047 8.95707 23.9229V23.8956C8.23663 20.625 8.23663 17.2367 8.95707 13.9661V13.9365C9.53889 11.5752 12.1684 9.04564 14.5912 8.51837H14.6184C18.5086 7.77065 22.5056 7.77065 26.3957 8.51837H26.4093C27.7139 8.80246 29.0798 9.67064 30.1525 10.7911C31.0616 11.7343 31.7707 12.857 32.0389 13.9434V13.9729C32.7628 17.2404 32.7675 20.6262 32.0525 23.8956H32.0548Z" fill="#21222B"/>
</g>
<defs>
<clipPath id="clip0_231_169">
<rect width="40" height="40" fill="white" transform="translate(0.5)"/>
</clipPath>
</defs>
</svg>
