<svg width="41" height="40" viewBox="0 0 41 40" fill="none" xmlns="http://www.w3.org/2000/svg">
<g clip-path="url(#clip0_231_164)">
<path d="M27.4163 13.0868L27.3663 13.0345C25.7322 11.393 23.5651 10.3898 21.2562 10.2059C18.9473 10.0221 16.6488 10.6697 14.7755 12.0319C12.9022 13.394 11.5776 15.381 11.0407 17.6341C10.5039 19.8873 10.7903 22.2581 11.8481 24.3186L12.2754 25.1595L11.4799 29.0231L11.4685 29.0754L15.3072 28.1663L16.1822 28.5959C18.0028 29.5003 20.0611 29.8113 22.0677 29.4852C24.0742 29.1591 25.9281 28.2122 27.3685 26.7777C29.1871 24.9543 30.2094 22.4848 30.2117 19.9095C30.221 17.3547 29.2155 14.9007 27.4163 13.0868ZM27.0254 23.93C26.5549 24.6709 25.8117 25.5777 24.8776 25.8027C23.2413 26.2004 20.7299 25.8163 17.6049 22.905L17.5663 22.8663C14.8185 20.3209 14.1049 18.2027 14.2776 16.5186C14.3731 15.5618 15.1685 14.7004 15.839 14.1368C15.9448 14.0462 16.0704 13.9817 16.2056 13.9484C16.3409 13.915 16.482 13.9137 16.6178 13.9446C16.7536 13.9756 16.8803 14.0378 16.9878 14.1264C17.0953 14.215 17.1805 14.3275 17.2367 14.455L18.2481 16.7413C18.3138 16.8887 18.3382 17.0512 18.3186 17.2113C18.2989 17.3715 18.2361 17.5233 18.1367 17.6504L17.6254 18.3141C17.518 18.45 17.4532 18.6146 17.4391 18.7873C17.4249 18.9599 17.462 19.1329 17.5458 19.2845C17.8322 19.7845 18.5185 20.5231 19.2799 21.2118C20.1345 21.9822 21.0822 22.6891 21.6822 22.9322C21.8431 22.9963 22.0195 23.0113 22.189 22.9753C22.3584 22.9393 22.5134 22.8539 22.6345 22.73L23.2276 22.1322C23.3421 22.0194 23.4844 21.9389 23.6401 21.899C23.7958 21.859 23.9594 21.8611 24.114 21.905L26.5163 22.5868C26.6505 22.625 26.7739 22.6941 26.8766 22.7885C26.9793 22.883 27.0586 23.0001 27.1081 23.1305C27.1575 23.261 27.1758 23.4013 27.1614 23.5401C27.1471 23.6789 27.1005 23.8124 27.0254 23.93Z" fill="#21222B"/>
<path d="M39.8184 7.15473C39.6443 5.4976 38.9064 3.95052 37.7281 2.7723C36.5499 1.59408 35.0028 0.856167 33.3457 0.682006C24.8096 -0.233195 16.2 -0.233195 7.66389 0.682006C6.00512 0.854208 4.45593 1.59126 3.27587 2.76965C2.09582 3.94805 1.3566 5.49621 1.18207 7.15473C0.271342 15.6911 0.271342 24.3002 1.18207 32.8365C1.35427 34.4953 2.09132 36.0445 3.26972 37.2246C4.44812 38.4046 5.99627 39.1438 7.65479 39.3184C16.1909 40.2336 24.8005 40.2336 33.3366 39.3184C34.9954 39.1462 36.5446 38.4091 37.7246 37.2307C38.9047 36.0523 39.6439 34.5042 39.8184 32.8456C40.7298 24.3063 40.7298 15.6941 39.8184 7.15473ZM32.8934 20.2956C32.8264 22.372 32.2388 24.3982 31.1847 26.1884C30.1306 27.9785 28.6437 29.4751 26.8605 30.5409C25.0773 31.6067 23.0549 32.2075 20.979 32.2882C18.9032 32.3688 16.8403 31.9267 14.9798 31.0025L8.71843 32.5002C8.63941 32.5186 8.55704 32.5168 8.47888 32.4951C8.40072 32.4733 8.32928 32.4323 8.27113 32.3757C8.21298 32.3191 8.16997 32.2488 8.14607 32.1713C8.12217 32.0938 8.11813 32.0115 8.13434 31.932L9.45025 25.5434C8.59193 23.858 8.13053 21.9985 8.10136 20.1074C8.07219 18.2162 8.47602 16.3435 9.28195 14.6324C10.0879 12.9213 11.2746 11.4173 12.7512 10.2354C14.2278 9.05345 15.9552 8.22499 17.8013 7.81336C19.6473 7.40174 21.563 7.41787 23.4019 7.86051C25.2407 8.30316 26.954 9.16059 28.4105 10.3672C29.867 11.5738 31.0282 13.0976 31.8052 14.822C32.5822 16.5464 32.9544 18.4257 32.8934 20.3161V20.2956Z" fill="#21222B"/>
</g>
<defs>
<clipPath id="clip0_231_164">
<rect width="40" height="40" fill="white" transform="translate(0.5)"/>
</clipPath>
</defs>
</svg>
